<svg width="183" height="102" viewBox="0 0 183 102" fill="none" xmlns="http://www.w3.org/2000/svg">
<path d="M18.8925 94.1281C18.8925 95.4347 18.56 96.6364 17.895 97.7331C17.23 98.8297 16.25 99.7047 14.955 100.358C13.66 101.011 12.0908 101.338 10.2475 101.338C7.47083 101.338 5.18416 100.661 3.3875 99.3081C1.59083 97.9547 0.610843 96.0647 0.44751 93.6381H6.8175C6.91084 94.5714 7.24334 95.3064 7.815 95.8431C8.38667 96.3797 9.11584 96.6481 10.0025 96.6481C10.7725 96.6481 11.3792 96.4381 11.8225 96.0181C12.2658 95.5981 12.4875 95.0381 12.4875 94.3381C12.4875 93.7081 12.2833 93.1831 11.875 92.7631C11.4667 92.3431 10.9592 91.9989 10.3525 91.7306C9.74584 91.4622 8.90584 91.1414 7.8325 90.7681C6.26917 90.2314 4.99167 89.7122 4 89.2106C3.00833 88.7089 2.15667 87.9622 1.44501 86.9706C0.733341 85.9789 0.377502 84.6897 0.377502 83.1031C0.377502 81.6331 0.750831 80.3614 1.4975 79.2881C2.24416 78.2147 3.27667 77.3922 4.595 76.8206C5.91333 76.2489 7.42417 75.9631 9.1275 75.9631C11.8808 75.9631 14.0683 76.6164 15.69 77.9231C17.3117 79.2297 18.2275 81.0264 18.4375 83.3131H11.9625C11.8458 82.4964 11.5483 81.8489 11.07 81.3706C10.5917 80.8922 9.94417 80.6531 9.1275 80.6531C8.4275 80.6531 7.86167 80.8397 7.43001 81.2131C6.99834 81.5864 6.7825 82.1347 6.7825 82.8581C6.7825 83.4414 6.975 83.9372 7.36 84.3456C7.745 84.7539 8.22917 85.0864 8.8125 85.3431C9.39583 85.5997 10.2358 85.9264 11.3325 86.3231C12.9192 86.8597 14.2142 87.3906 15.2175 87.9156C16.2208 88.4406 17.0842 89.2047 17.8075 90.2081C18.5308 91.2114 18.8925 92.5181 18.8925 94.1281ZM31.3875 95.9481H33.2775V101.093H30.5825C28.2958 101.093 26.5167 100.527 25.245 99.3956C23.9733 98.2639 23.3375 96.3914 23.3375 93.7781V86.6031H20.7125V81.5631H23.3375V76.7681H29.3225V81.5631H33.2425V86.6031H29.3225V93.8831C29.3225 94.6531 29.48 95.1897 29.795 95.4931C30.11 95.7964 30.6408 95.9481 31.3875 95.9481ZM42.6225 85.2381C43.3692 84.0481 44.3317 83.1031 45.51 82.4031C46.6883 81.7031 47.9658 81.3531 49.3425 81.3531V87.7581H47.6275C46.0408 87.7581 44.81 88.0964 43.935 88.7731C43.06 89.4497 42.6225 90.5931 42.6225 92.2031V101.093H36.6375V81.5631H42.6225V85.2381ZM59.2825 81.3181C60.7758 81.3181 62.0592 81.6564 63.1325 82.3331C64.2058 83.0097 64.9992 83.9314 65.5125 85.0981V81.5631H71.4625V101.093H65.5125V97.5581C64.9992 98.7247 64.2058 99.6464 63.1325 100.323C62.0592 101 60.7758 101.338 59.2825 101.338C57.6725 101.338 56.2317 100.936 54.96 100.131C53.6883 99.3256 52.685 98.1647 51.95 96.6481C51.215 95.1314 50.8475 93.3581 50.8475 91.3281C50.8475 89.2747 51.215 87.4956 51.95 85.9906C52.685 84.4856 53.6883 83.3306 54.96 82.5256C56.2317 81.7206 57.6725 81.3181 59.2825 81.3181ZM61.2075 86.5681C59.9242 86.5681 58.8917 86.9881 58.11 87.8281C57.3283 88.6681 56.9375 89.8347 56.9375 91.3281C56.9375 92.8214 57.3283 93.9881 58.11 94.8281C58.8917 95.6681 59.9242 96.0881 61.2075 96.0881C62.4675 96.0881 63.5 95.6564 64.305 94.7931C65.11 93.9297 65.5125 92.7747 65.5125 91.3281C65.5125 89.8581 65.11 88.6972 64.305 87.8456C63.5 86.9939 62.4675 86.5681 61.2075 86.5681ZM84.7625 95.9481H86.6525V101.093H83.9575C81.6708 101.093 79.8917 100.527 78.62 99.3956C77.3483 98.2639 76.7125 96.3914 76.7125 93.7781V86.6031H74.0875V81.5631H76.7125V76.7681H82.6975V81.5631H86.6175V86.6031H82.6975V93.8831C82.6975 94.6531 82.855 95.1897 83.17 95.4931C83.485 95.7964 84.0158 95.9481 84.7625 95.9481ZM119.272 88.6681C119.272 91.0947 118.753 93.2472 117.715 95.1256C116.677 97.0039 115.183 98.4681 113.235 99.5181C111.287 100.568 108.994 101.093 106.357 101.093H97.0125V76.3481H106.357C109.017 76.3481 111.316 76.8614 113.253 77.8881C115.189 78.9147 116.677 80.3614 117.715 82.2281C118.753 84.0947 119.272 86.2414 119.272 88.6681ZM105.833 95.7381C108.166 95.7381 109.98 95.1197 111.275 93.8831C112.57 92.6464 113.217 90.9081 113.217 88.6681C113.217 86.4281 112.57 84.6897 111.275 83.4531C109.98 82.2164 108.166 81.5981 105.833 81.5981H102.997V95.7381H105.833ZM131.802 81.3181C133.739 81.3181 135.472 81.7206 137 82.5256C138.528 83.3306 139.73 84.4914 140.605 86.0081C141.48 87.5247 141.918 89.2981 141.918 91.3281C141.918 93.3581 141.48 95.1314 140.605 96.6481C139.73 98.1647 138.528 99.3256 137 100.131C135.472 100.936 133.739 101.338 131.802 101.338C129.866 101.338 128.127 100.936 126.587 100.131C125.047 99.3256 123.84 98.1647 122.965 96.6481C122.09 95.1314 121.652 93.3581 121.652 91.3281C121.652 89.2981 122.09 87.5247 122.965 86.0081C123.84 84.4914 125.047 83.3306 126.587 82.5256C128.127 81.7206 129.866 81.3181 131.802 81.3181ZM131.802 86.4981C130.659 86.4981 129.697 86.9122 128.915 87.7406C128.133 88.5689 127.742 89.7647 127.742 91.3281C127.742 92.8914 128.133 94.0814 128.915 94.8981C129.697 95.7147 130.659 96.1231 131.802 96.1231C132.946 96.1231 133.903 95.7147 134.673 94.8981C135.443 94.0814 135.828 92.8914 135.828 91.3281C135.828 89.7647 135.443 88.5689 134.673 87.7406C133.903 86.9122 132.946 86.4981 131.802 86.4981ZM153.853 81.3181C156.373 81.3181 158.484 82.0122 160.188 83.4006C161.891 84.7889 162.964 86.6964 163.408 89.1231H157.073C156.886 88.2831 156.501 87.6297 155.918 87.1631C155.334 86.6964 154.599 86.4631 153.712 86.4631C152.662 86.4631 151.799 86.8772 151.122 87.7056C150.446 88.5339 150.108 89.7414 150.108 91.3281C150.108 92.9147 150.446 94.1222 151.122 94.9506C151.799 95.7789 152.662 96.1931 153.712 96.1931C154.599 96.1931 155.334 95.9597 155.918 95.4931C156.501 95.0264 156.886 94.3731 157.073 93.5331H163.408C162.964 95.9597 161.891 97.8672 160.188 99.2556C158.484 100.644 156.373 101.338 153.853 101.338C151.939 101.338 150.242 100.936 148.76 100.131C147.278 99.3256 146.117 98.1647 145.277 96.6481C144.437 95.1314 144.018 93.3581 144.018 91.3281C144.018 89.2747 144.432 87.4956 145.26 85.9906C146.088 84.4856 147.249 83.3306 148.742 82.5256C150.236 81.7206 151.939 81.3181 153.853 81.3181ZM173.628 81.3181C176.101 81.3181 178.078 81.9364 179.56 83.1731C181.042 84.4097 181.969 86.0431 182.342 88.0731H176.742C176.579 87.2797 176.212 86.6556 175.64 86.2006C175.068 85.7456 174.351 85.5181 173.487 85.5181C172.811 85.5181 172.298 85.6639 171.948 85.9556C171.598 86.2472 171.423 86.6614 171.423 87.1981C171.423 87.8047 171.743 88.2597 172.385 88.5631C173.027 88.8664 174.036 89.1697 175.413 89.4731C176.906 89.8231 178.131 90.1789 179.087 90.5406C180.044 90.9022 180.873 91.4914 181.573 92.3081C182.273 93.1247 182.622 94.2214 182.622 95.5981C182.622 96.7181 182.319 97.7097 181.712 98.5731C181.106 99.4364 180.231 100.113 179.087 100.603C177.944 101.093 176.591 101.338 175.027 101.338C172.391 101.338 170.279 100.755 168.693 99.5881C167.106 98.4214 166.138 96.7531 165.788 94.5831H171.562C171.656 95.4231 172.012 96.0647 172.63 96.5081C173.248 96.9514 174.047 97.1731 175.027 97.1731C175.704 97.1731 176.218 97.0156 176.568 96.7006C176.918 96.3856 177.092 95.9714 177.092 95.4581C177.092 94.7814 176.772 94.2972 176.13 94.0056C175.488 93.7139 174.444 93.4047 172.997 93.0781C171.551 92.7747 170.361 92.4481 169.427 92.0981C168.494 91.7481 167.689 91.1822 167.013 90.4006C166.336 89.6189 165.997 88.5514 165.997 87.1981C165.997 85.4481 166.662 84.0306 167.992 82.9456C169.322 81.8606 171.201 81.3181 173.628 81.3181Z" fill="#433AD8"/>
<path d="M97.0455 39.0513L94.6817 52.8383L100.969 53.7574L103.589 29.5053L80.8132 31.1604L81.194 37.4969L94.511 35.4752C88.7118 43.0797 77.7532 53.1484 59.8333 51.0098C49.6699 49.7968 42.5147 43.5872 41.7016 34.9017L37.6926 34.7294C37.0284 44.4714 43.581 56.514 59.8694 58.4579C74.9523 60.258 91.0782 48.1163 97.0455 39.0513Z" fill="#433AD8"/>
<path d="M124.08 9.87723L117.344 15.3777L124.08 20.8753L119.396 25.5591L113.895 18.8247L108.398 25.5591L103.715 20.8753L110.451 15.3722L103.715 9.87722L108.398 5.19351L113.9 11.931L119.396 5.1935L124.08 9.87723ZM119.828 35.369C119.032 35.369 118.254 35.6051 117.591 36.0476C116.929 36.49 116.413 37.1189 116.108 37.8547C115.804 38.5905 115.724 39.4001 115.879 40.1812C116.035 40.9622 116.418 41.6797 116.981 42.2429C117.544 42.806 118.262 43.1895 119.043 43.3449C119.824 43.5002 120.634 43.4205 121.369 43.1157C122.105 42.811 122.734 42.2949 123.176 41.6327C123.619 40.9705 123.855 40.192 123.855 39.3956C123.855 38.3277 123.431 37.3035 122.676 36.5484C121.921 35.7932 120.896 35.369 119.828 35.369V35.369ZM60.3256 28.4314C59.5292 28.4314 58.7507 28.6676 58.0885 29.11C57.4264 29.5525 56.9103 30.1814 56.6055 30.9171C56.3007 31.6529 56.221 32.4625 56.3764 33.2436C56.5317 34.0247 56.9152 34.7422 57.4783 35.3053C58.0415 35.8684 58.759 36.2519 59.54 36.4073C60.3211 36.5627 61.1308 36.4829 61.8665 36.1782C62.6023 35.8734 63.2312 35.3573 63.6736 34.6951C64.1161 34.0329 64.3522 33.2544 64.3522 32.4581C64.3522 31.3901 63.928 30.3659 63.1729 29.6108C62.4177 28.8557 61.3935 28.4314 60.3256 28.4314V28.4314ZM89.6694 15.8529C89.0913 15.8529 88.5262 16.0244 88.0455 16.3456C87.5648 16.6667 87.1902 17.1232 86.969 17.6573C86.7478 18.1914 86.6899 18.7791 86.8027 19.3461C86.9155 19.9131 87.1938 20.4339 87.6026 20.8427C88.0114 21.2514 88.5322 21.5298 89.0992 21.6426C89.6662 21.7553 90.2539 21.6974 90.788 21.4762C91.3221 21.255 91.7785 20.8803 92.0997 20.3997C92.4209 19.919 92.5923 19.3539 92.5923 18.7758C92.5923 18.3919 92.5167 18.0119 92.3698 17.6572C92.2229 17.3026 92.0076 16.9804 91.7362 16.709C91.4648 16.4376 91.1425 16.2223 90.7879 16.0754C90.4333 15.9285 90.0532 15.8529 89.6694 15.8529V15.8529ZM73.4414 6.64894C72.8633 6.64894 72.2982 6.82037 71.8175 7.14154C71.3368 7.46272 70.9622 7.91921 70.741 8.4533C70.5198 8.98738 70.4619 9.57508 70.5747 10.1421C70.6874 10.709 70.9658 11.2298 71.3746 11.6386C71.7834 12.0474 72.3042 12.3258 72.8711 12.4386C73.4381 12.5513 74.0258 12.4935 74.5599 12.2722C75.094 12.051 75.5505 11.6764 75.8717 11.1957C76.1928 10.7151 76.3643 10.15 76.3643 9.57186C76.3643 8.79667 76.0563 8.05322 75.5082 7.50507C74.96 6.95692 74.2166 6.64897 73.4414 6.64896L73.4414 6.64894ZM132.713 0.661942C132.135 0.661945 131.57 0.833372 131.089 1.15454C130.609 1.47572 130.234 1.93221 130.013 2.4663C129.792 3.00038 129.734 3.58808 129.846 4.15506C129.959 4.72204 130.238 5.24285 130.646 5.65162C131.055 6.0604 131.576 6.33878 132.143 6.45156C132.71 6.56434 133.298 6.50646 133.832 6.28524C134.366 6.06401 134.822 5.68938 135.143 5.20872C135.465 4.72806 135.636 4.16295 135.636 3.58486C135.636 2.80967 135.328 2.06622 134.78 1.51807C134.232 0.969921 133.488 0.661969 132.713 0.661961L132.713 0.661942ZM142.43 46.9066C141.852 46.9066 141.287 47.078 140.806 47.3992C140.326 47.7204 139.951 48.1769 139.73 48.711C139.508 49.245 139.451 49.8327 139.563 50.3997C139.676 50.9667 139.955 51.4875 140.363 51.8963C140.772 52.305 141.293 52.5834 141.86 52.6962C142.427 52.809 143.015 52.7511 143.549 52.5298C144.083 52.3086 144.539 51.934 144.86 51.4533C145.182 50.9726 145.353 50.4075 145.353 49.8294C145.353 49.4456 145.277 49.0655 145.13 48.7109C144.984 48.3563 144.768 48.0341 144.497 47.7626C144.225 47.4912 143.903 47.2759 143.549 47.1291C143.194 46.9822 142.814 46.9066 142.43 46.9066L142.43 46.9066ZM130.118 26.2679C129.54 26.2679 128.975 26.4393 128.494 26.7605C128.014 27.0816 127.639 27.5381 127.418 28.0722C127.197 28.6063 127.139 29.194 127.252 29.761C127.364 30.328 127.643 30.8488 128.051 31.2575C128.46 31.6663 128.981 31.9447 129.548 32.0575C130.115 32.1702 130.703 32.1124 131.237 31.8911C131.771 31.6699 132.227 31.2953 132.549 30.8146C132.87 30.334 133.041 29.7689 133.041 29.1908C133.041 28.8069 132.966 28.4268 132.819 28.0722C132.672 27.7176 132.456 27.3954 132.185 27.124C131.914 26.8525 131.591 26.6372 131.237 26.4903C130.882 26.3435 130.502 26.2679 130.118 26.2679V26.2679Z" fill="#F65F34"/>
</svg>
