<svg width="475" height="300" viewBox="0 0 475 300" fill="none" xmlns="http://www.w3.org/2000/svg">
<path d="M164.893 184.128C164.893 185.435 164.56 186.636 163.895 187.733C163.23 188.83 162.25 189.705 160.955 190.358C159.66 191.011 158.091 191.338 156.247 191.338C153.471 191.338 151.184 190.661 149.387 189.308C147.591 187.955 146.611 186.065 146.448 183.638H152.818C152.911 184.571 153.243 185.306 153.815 185.843C154.387 186.38 155.116 186.648 156.003 186.648C156.773 186.648 157.379 186.438 157.823 186.018C158.266 185.598 158.488 185.038 158.488 184.338C158.488 183.708 158.283 183.183 157.875 182.763C157.467 182.343 156.959 181.999 156.353 181.731C155.746 181.462 154.906 181.141 153.833 180.768C152.269 180.231 150.992 179.712 150 179.211C149.008 178.709 148.157 177.962 147.445 176.971C146.733 175.979 146.378 174.69 146.378 173.103C146.378 171.633 146.751 170.361 147.497 169.288C148.244 168.215 149.277 167.392 150.595 166.821C151.913 166.249 153.424 165.963 155.128 165.963C157.881 165.963 160.068 166.616 161.69 167.923C163.312 169.23 164.228 171.026 164.438 173.313H157.963C157.846 172.496 157.548 171.849 157.07 171.371C156.592 170.892 155.944 170.653 155.128 170.653C154.428 170.653 153.862 170.84 153.43 171.213C152.998 171.586 152.783 172.135 152.783 172.858C152.783 173.441 152.975 173.937 153.36 174.346C153.745 174.754 154.229 175.086 154.812 175.343C155.396 175.6 156.236 175.926 157.333 176.323C158.919 176.86 160.214 177.391 161.217 177.916C162.221 178.441 163.084 179.205 163.807 180.208C164.531 181.211 164.893 182.518 164.893 184.128ZM177.387 185.948H179.277V191.093H176.583C174.296 191.093 172.517 190.527 171.245 189.396C169.973 188.264 169.338 186.391 169.338 183.778V176.603H166.713V171.563H169.338V166.768H175.323V171.563H179.243V176.603H175.323V183.883C175.323 184.653 175.48 185.19 175.795 185.493C176.11 185.796 176.641 185.948 177.387 185.948ZM188.622 175.238C189.369 174.048 190.332 173.103 191.51 172.403C192.688 171.703 193.966 171.353 195.342 171.353V177.758H193.628C192.041 177.758 190.81 178.096 189.935 178.773C189.06 179.45 188.622 180.593 188.622 182.203V191.093H182.637V171.563H188.622V175.238ZM205.283 171.318C206.776 171.318 208.059 171.656 209.133 172.333C210.206 173.01 210.999 173.931 211.512 175.098V171.563H217.463V191.093H211.512V187.558C210.999 188.725 210.206 189.646 209.133 190.323C208.059 191 206.776 191.338 205.283 191.338C203.673 191.338 202.232 190.936 200.96 190.131C199.688 189.326 198.685 188.165 197.95 186.648C197.215 185.131 196.848 183.358 196.848 181.328C196.848 179.275 197.215 177.496 197.95 175.991C198.685 174.486 199.688 173.331 200.96 172.526C202.232 171.721 203.673 171.318 205.283 171.318ZM207.208 176.568C205.924 176.568 204.892 176.988 204.11 177.828C203.328 178.668 202.938 179.835 202.938 181.328C202.938 182.821 203.328 183.988 204.11 184.828C204.892 185.668 205.924 186.088 207.208 186.088C208.468 186.088 209.5 185.656 210.305 184.793C211.11 183.93 211.512 182.775 211.512 181.328C211.512 179.858 211.11 178.697 210.305 177.846C209.5 176.994 208.468 176.568 207.208 176.568ZM230.762 185.948H232.652V191.093H229.958C227.671 191.093 225.892 190.527 224.62 189.396C223.348 188.264 222.713 186.391 222.713 183.778V176.603H220.088V171.563H222.713V166.768H228.698V171.563H232.618V176.603H228.698V183.883C228.698 184.653 228.855 185.19 229.17 185.493C229.485 185.796 230.016 185.948 230.762 185.948ZM265.272 178.668C265.272 181.095 264.753 183.247 263.715 185.126C262.677 187.004 261.183 188.468 259.235 189.518C257.287 190.568 254.994 191.093 252.357 191.093H243.012V166.348H252.357C255.018 166.348 257.316 166.861 259.253 167.888C261.189 168.915 262.677 170.361 263.715 172.228C264.753 174.095 265.272 176.241 265.272 178.668ZM251.833 185.738C254.166 185.738 255.98 185.12 257.275 183.883C258.57 182.646 259.217 180.908 259.217 178.668C259.217 176.428 258.57 174.69 257.275 173.453C255.98 172.216 254.166 171.598 251.833 171.598H248.997V185.738H251.833ZM277.802 171.318C279.739 171.318 281.472 171.721 283 172.526C284.528 173.331 285.73 174.491 286.605 176.008C287.48 177.525 287.918 179.298 287.918 181.328C287.918 183.358 287.48 185.131 286.605 186.648C285.73 188.165 284.528 189.326 283 190.131C281.472 190.936 279.739 191.338 277.802 191.338C275.866 191.338 274.127 190.936 272.587 190.131C271.047 189.326 269.84 188.165 268.965 186.648C268.09 185.131 267.652 183.358 267.652 181.328C267.652 179.298 268.09 177.525 268.965 176.008C269.84 174.491 271.047 173.331 272.587 172.526C274.127 171.721 275.866 171.318 277.802 171.318ZM277.802 176.498C276.659 176.498 275.697 176.912 274.915 177.741C274.133 178.569 273.742 179.765 273.742 181.328C273.742 182.891 274.133 184.081 274.915 184.898C275.697 185.715 276.659 186.123 277.802 186.123C278.946 186.123 279.903 185.715 280.673 184.898C281.443 184.081 281.828 182.891 281.828 181.328C281.828 179.765 281.443 178.569 280.673 177.741C279.903 176.912 278.946 176.498 277.802 176.498ZM299.853 171.318C302.373 171.318 304.484 172.012 306.188 173.401C307.891 174.789 308.964 176.696 309.408 179.123H303.073C302.886 178.283 302.501 177.63 301.918 177.163C301.334 176.696 300.599 176.463 299.712 176.463C298.662 176.463 297.799 176.877 297.122 177.706C296.446 178.534 296.108 179.741 296.108 181.328C296.108 182.915 296.446 184.122 297.122 184.951C297.799 185.779 298.662 186.193 299.712 186.193C300.599 186.193 301.334 185.96 301.918 185.493C302.501 185.026 302.886 184.373 303.073 183.533H309.408C308.964 185.96 307.891 187.867 306.188 189.256C304.484 190.644 302.373 191.338 299.853 191.338C297.939 191.338 296.242 190.936 294.76 190.131C293.278 189.326 292.117 188.165 291.277 186.648C290.438 185.131 290.018 183.358 290.018 181.328C290.018 179.275 290.432 177.496 291.26 175.991C292.088 174.486 293.249 173.331 294.742 172.526C296.236 171.721 297.939 171.318 299.853 171.318ZM319.628 171.318C322.101 171.318 324.078 171.936 325.56 173.173C327.042 174.41 327.969 176.043 328.342 178.073H322.742C322.579 177.28 322.212 176.656 321.64 176.201C321.068 175.746 320.351 175.518 319.487 175.518C318.811 175.518 318.298 175.664 317.948 175.956C317.598 176.247 317.423 176.661 317.423 177.198C317.423 177.805 317.743 178.26 318.385 178.563C319.027 178.866 320.036 179.17 321.413 179.473C322.906 179.823 324.131 180.179 325.087 180.541C326.044 180.902 326.873 181.491 327.573 182.308C328.273 183.125 328.622 184.221 328.622 185.598C328.622 186.718 328.319 187.71 327.712 188.573C327.106 189.436 326.231 190.113 325.087 190.603C323.944 191.093 322.591 191.338 321.027 191.338C318.391 191.338 316.279 190.755 314.693 189.588C313.106 188.421 312.138 186.753 311.788 184.583H317.562C317.656 185.423 318.012 186.065 318.63 186.508C319.248 186.951 320.048 187.173 321.027 187.173C321.704 187.173 322.217 187.016 322.568 186.701C322.918 186.386 323.092 185.971 323.092 185.458C323.092 184.781 322.772 184.297 322.13 184.006C321.488 183.714 320.444 183.405 318.997 183.078C317.551 182.775 316.361 182.448 315.427 182.098C314.494 181.748 313.689 181.182 313.013 180.401C312.336 179.619 311.997 178.551 311.997 177.198C311.997 175.448 312.662 174.031 313.992 172.946C315.322 171.861 317.201 171.318 319.628 171.318Z" fill="white"/>
<path d="M243.045 129.051L240.682 142.838L246.969 143.757L249.589 119.505L226.813 121.16L227.194 127.497L240.511 125.475C234.712 133.08 223.753 143.148 205.833 141.01C195.67 139.797 188.515 133.587 187.702 124.902L183.693 124.729C183.028 134.471 189.581 146.514 205.869 148.458C220.952 150.258 237.078 138.116 243.045 129.051Z" fill="white"/>
<path d="M270.08 99.8772L263.344 105.378L270.08 110.875L265.396 115.559L259.895 108.825L254.398 115.559L249.715 110.875L256.451 105.372L249.715 99.8772L254.398 95.1935L259.9 101.931L265.396 95.1935L270.08 99.8772ZM265.828 125.369C265.032 125.369 264.254 125.605 263.591 126.048C262.929 126.49 262.413 127.119 262.108 127.855C261.804 128.59 261.724 129.4 261.879 130.181C262.035 130.962 262.418 131.68 262.981 132.243C263.544 132.806 264.262 133.189 265.043 133.345C265.824 133.5 266.634 133.42 267.369 133.116C268.105 132.811 268.734 132.295 269.176 131.633C269.619 130.97 269.855 130.192 269.855 129.396C269.855 128.328 269.431 127.303 268.676 126.548C267.921 125.793 266.896 125.369 265.828 125.369ZM206.326 118.431C205.529 118.431 204.751 118.668 204.089 119.11C203.426 119.552 202.91 120.181 202.605 120.917C202.301 121.653 202.221 122.462 202.376 123.244C202.532 124.025 202.915 124.742 203.478 125.305C204.041 125.868 204.759 126.252 205.54 126.407C206.321 126.563 207.131 126.483 207.867 126.178C208.602 125.873 209.231 125.357 209.674 124.695C210.116 124.033 210.352 123.254 210.352 122.458C210.352 121.39 209.928 120.366 209.173 119.611C208.418 118.856 207.394 118.431 206.326 118.431ZM235.669 105.853C235.091 105.853 234.526 106.024 234.045 106.346C233.565 106.667 233.19 107.123 232.969 107.657C232.748 108.191 232.69 108.779 232.803 109.346C232.915 109.913 233.194 110.434 233.603 110.843C234.011 111.251 234.532 111.53 235.099 111.643C235.666 111.755 236.254 111.697 236.788 111.476C237.322 111.255 237.779 110.88 238.1 110.4C238.421 109.919 238.592 109.354 238.592 108.776C238.592 108.392 238.517 108.012 238.37 107.657C238.223 107.303 238.008 106.98 237.736 106.709C237.465 106.438 237.143 106.222 236.788 106.075C236.433 105.929 236.053 105.853 235.669 105.853ZM219.441 96.6489C218.863 96.6489 218.298 96.8204 217.818 97.1415C217.337 97.4627 216.962 97.9192 216.741 98.4533C216.52 98.9874 216.462 99.5751 216.575 100.142C216.687 100.709 216.966 101.23 217.375 101.639C217.783 102.047 218.304 102.326 218.871 102.439C219.438 102.551 220.026 102.493 220.56 102.272C221.094 102.051 221.55 101.676 221.872 101.196C222.193 100.715 222.364 100.15 222.364 99.5718C222.364 98.7966 222.056 98.0532 221.508 97.5051C220.96 96.9569 220.217 96.649 219.441 96.6489L219.441 96.6489ZM278.713 90.6619C278.135 90.6619 277.57 90.8334 277.089 91.1545C276.609 91.4757 276.234 91.9322 276.013 92.4663C275.792 93.0004 275.734 93.5881 275.846 94.155C275.959 94.722 276.238 95.2428 276.646 95.6516C277.055 96.0604 277.576 96.3388 278.143 96.4515C278.71 96.5643 279.298 96.5064 279.832 96.2852C280.366 96.064 280.822 95.6894 281.143 95.2087C281.465 94.728 281.636 94.1629 281.636 93.5848C281.636 92.8097 281.328 92.0662 280.78 91.5181C280.232 90.9699 279.488 90.662 278.713 90.6619L278.713 90.6619ZM288.43 136.907C287.852 136.907 287.287 137.078 286.806 137.399C286.326 137.72 285.951 138.177 285.73 138.711C285.508 139.245 285.451 139.833 285.563 140.4C285.676 140.967 285.955 141.487 286.363 141.896C286.772 142.305 287.293 142.583 287.86 142.696C288.427 142.809 289.015 142.751 289.549 142.53C290.083 142.309 290.539 141.934 290.86 141.453C291.182 140.973 291.353 140.408 291.353 139.829C291.353 139.446 291.277 139.065 291.13 138.711C290.984 138.356 290.768 138.034 290.497 137.763C290.225 137.491 289.903 137.276 289.549 137.129C289.194 136.982 288.814 136.907 288.43 136.907L288.43 136.907ZM276.118 116.268C275.54 116.268 274.975 116.439 274.494 116.76C274.014 117.082 273.639 117.538 273.418 118.072C273.197 118.606 273.139 119.194 273.252 119.761C273.364 120.328 273.643 120.849 274.051 121.258C274.46 121.666 274.981 121.945 275.548 122.057C276.115 122.17 276.703 122.112 277.237 121.891C277.771 121.67 278.227 121.295 278.549 120.815C278.87 120.334 279.041 119.769 279.041 119.191C279.041 118.807 278.966 118.427 278.819 118.072C278.672 117.718 278.456 117.395 278.185 117.124C277.914 116.853 277.591 116.637 277.237 116.49C276.882 116.343 276.502 116.268 276.118 116.268Z" fill="white"/>
</svg>
