<svg width="555" height="482" viewBox="0 0 555 482" fill="none" xmlns="http://www.w3.org/2000/svg">
<g clip-path="url(#clip0)">
<mask id="mask0" mask-type="alpha" maskUnits="userSpaceOnUse" x="-18" y="-23" width="600" height="559">
<path d="M-18 -23H582V536H-18V-23Z" fill="white"/>
</mask>
<g mask="url(#mask0)">
<g opacity="0.47">
<g opacity="0.47">
<path opacity="0.47" fill-rule="evenodd" clip-rule="evenodd" d="M431.658 136.181L534.658 108.581C546.735 105.345 553.901 92.9315 550.665 80.855C547.429 68.7785 535.016 61.6119 522.939 64.848L360.646 108.332C354.847 109.886 348.667 109.072 343.468 106.07C338.268 103.068 334.474 98.1235 332.92 92.324C329.685 80.2484 336.851 67.8366 348.926 64.6L422.8 44.8C428.6 43.2466 433.545 39.4527 436.548 34.253C439.55 29.0533 440.364 22.8738 438.81 17.074C435.574 4.99747 423.161 -2.1691 411.084 1.067L35.8 101.62C30.0005 103.174 25.0558 106.967 22.0537 112.167C19.0516 117.366 18.238 123.546 19.792 129.345C21.3449 135.146 25.139 140.092 30.3392 143.095C35.5394 146.098 41.7197 146.911 47.52 145.357L105.953 129.7C118.03 126.465 130.443 133.631 133.679 145.708C135.233 151.507 134.419 157.687 131.417 162.886C128.415 168.086 123.47 171.879 117.671 173.433L17.651 200.233C5.57443 203.469 -1.59244 215.882 1.643 227.959C3.19682 233.759 6.99091 238.703 12.1906 241.705C17.3902 244.707 23.5695 245.521 29.369 243.967L91.789 227.241C103.866 224.006 116.279 231.172 119.515 243.249C121.069 249.048 120.255 255.228 117.253 260.427C114.251 265.626 109.306 269.42 103.507 270.974L99.078 272.161C93.2763 273.716 88.3302 277.512 85.3286 282.715C82.327 287.917 81.5159 294.099 83.074 299.9C84.6276 305.7 88.4216 310.645 93.6213 313.647C98.821 316.649 105 317.463 110.8 315.909L115 314.784C120.799 313.23 126.979 314.044 132.178 317.046C137.378 320.048 141.171 324.993 142.725 330.792C144.279 336.591 143.466 342.771 140.464 347.97C137.462 353.17 132.518 356.964 126.718 358.518L64.528 375.181C52.4515 378.417 45.2849 390.83 48.521 402.907C51.7571 414.984 64.1705 422.15 76.247 418.914L189.884 388.465C195.683 386.911 201.863 387.725 207.062 390.727C212.262 393.729 216.056 398.673 217.61 404.473C219.164 410.273 218.351 416.453 215.348 421.653C212.346 426.853 207.4 430.647 201.6 432.2L183.388 437.079C171.312 440.316 164.145 452.729 167.381 464.805C168.935 470.604 172.729 475.549 177.929 478.551C183.128 481.553 189.308 482.366 195.107 480.812L484.457 403.281C496.534 400.045 503.7 387.632 500.464 375.555C498.91 369.755 495.116 364.811 489.916 361.809C484.717 358.807 478.537 357.993 472.738 359.547L464.226 361.828C452.151 365.064 439.738 357.9 436.5 345.825C434.946 340.025 435.761 333.846 438.763 328.646C441.766 323.447 446.711 319.653 452.511 318.1L508.482 303.1C514.282 301.546 519.226 297.752 522.228 292.552C525.23 287.353 526.044 281.173 524.49 275.374C522.936 269.574 519.142 264.63 513.942 261.628C508.743 258.626 502.563 257.812 496.764 259.366L417.4 280.629C411.601 282.183 405.421 281.369 400.222 278.367C395.022 275.365 391.228 270.421 389.674 264.621C386.442 252.546 393.609 240.136 405.683 236.9L461.878 221.843C467.677 220.289 472.622 216.495 475.624 211.295C478.626 206.096 479.439 199.916 477.885 194.117C476.333 188.316 472.54 183.369 467.34 180.365C462.14 177.361 455.96 176.546 450.159 178.1L443.378 179.917C431.301 183.153 418.888 175.987 415.652 163.91C414.097 158.11 414.91 151.931 417.912 146.73C420.913 141.53 425.858 137.735 431.658 136.181Z" fill="#76D1FF"/>
<path opacity="0.47" d="M526.308 157.697L520.351 159.293C508.275 162.529 501.108 174.942 504.344 187.019L504.345 187.023C507.581 199.099 519.994 206.266 532.071 203.03L538.027 201.434C550.104 198.198 557.271 185.785 554.035 173.708L554.034 173.704C550.798 161.628 538.385 154.461 526.308 157.697Z" fill="#76D1FF"/>
</g>
</g>
<g opacity="0.33">
<g opacity="0.33">
<path opacity="0.33" d="M405.95 197.845H173.95C166.218 197.845 159.95 204.113 159.95 211.845V229.323C159.95 237.055 166.218 243.323 173.95 243.323H405.95C413.682 243.323 419.95 237.055 419.95 229.323V211.845C419.95 204.113 413.682 197.845 405.95 197.845Z" fill="#4E4E4E" stroke="black"/>
<path opacity="0.33" d="M405.95 197.845H173.95C166.218 197.845 159.95 204.113 159.95 211.845V229.323C159.95 237.055 166.218 243.323 173.95 243.323H405.95C413.682 243.323 419.95 237.055 419.95 229.323V211.845C419.95 204.113 413.682 197.845 405.95 197.845Z" fill="#4E4E4E"/>
<path opacity="0.17" fill-rule="evenodd" clip-rule="evenodd" d="M173.95 197.845H405.95C413.682 197.845 419.95 204.113 419.95 211.845V232.283C419.95 237.004 416.122 240.832 411.401 240.832H168.5C163.779 240.832 159.951 237.004 159.951 232.283V211.845C159.951 204.113 166.219 197.845 173.951 197.845H173.95Z" fill="#4E4E4E"/>
<path opacity="0.33" d="M405.95 197.845H173.95C166.218 197.845 159.95 204.113 159.95 211.845V229.323C159.95 237.055 166.218 243.323 173.95 243.323H405.95C413.682 243.323 419.95 237.055 419.95 229.323V211.845C419.95 204.113 413.682 197.845 405.95 197.845Z" fill="#4E4E4E" stroke="#46505C" stroke-width="4"/>
<path opacity="0.33" fill-rule="evenodd" clip-rule="evenodd" d="M401.95 202.969V237.91H177.95V202.969H401.95Z" fill="#4E4E4E"/>
<path opacity="0.33" fill-rule="evenodd" clip-rule="evenodd" d="M401.95 202.969V237.91H177.95V202.969H401.95Z" fill="#4E4E4E" stroke="#46505C"/>
<path opacity="0.33" d="M405.951 243.323H173.951C166.219 243.323 159.951 249.591 159.951 257.323V401.323C159.951 409.055 166.219 415.323 173.951 415.323H405.951C413.683 415.323 419.951 409.055 419.951 401.323V257.323C419.951 249.591 413.683 243.323 405.951 243.323Z" fill="#4E4E4E"/>
<path opacity="0.33" d="M415.951 401.323V257.323C415.951 251.8 411.474 247.323 405.951 247.323L173.951 247.323C168.428 247.323 163.951 251.8 163.951 257.323V401.323C163.951 406.846 168.428 411.323 173.951 411.323H405.951C411.474 411.323 415.951 406.846 415.951 401.323Z" fill="#4E4E4E" stroke="#E6F3FF" stroke-width="2"/>
<path opacity="0.33" fill-rule="evenodd" clip-rule="evenodd" d="M273.9 407.5H306C308.209 407.5 310 409.291 310 411.5V415.32H269.9V411.5C269.9 409.291 271.691 407.5 273.9 407.5Z" fill="#4E4E4E"/>
<path opacity="0.33" d="M405.951 243.323H173.951C166.219 243.323 159.951 249.591 159.951 257.323V401.323C159.951 409.055 166.219 415.323 173.951 415.323H405.951C413.683 415.323 419.951 409.055 419.951 401.323V257.323C419.951 249.591 413.683 243.323 405.951 243.323Z" fill="#4E4E4E" stroke="#46505C" stroke-width="4"/>
<path opacity="0.33" d="M401.95 256.743H177.95C176.293 256.743 174.95 258.086 174.95 259.743V345.743C174.95 347.4 176.293 348.743 177.95 348.743H401.95C403.607 348.743 404.95 347.4 404.95 345.743V259.743C404.95 258.086 403.607 256.743 401.95 256.743Z" fill="#4E4E4E"/>
<g opacity="0.33">
<path opacity="0.33" d="M219.035 326.243H207.035C206.483 326.243 206.035 326.691 206.035 327.243V339.243C206.035 339.795 206.483 340.243 207.035 340.243H219.035C219.587 340.243 220.035 339.795 220.035 339.243V327.243C220.035 326.691 219.587 326.243 219.035 326.243Z" fill="#4E4E4E" stroke="#626C84"/>
<path opacity="0.33" d="M197.396 326.243H185.396C184.844 326.243 184.396 326.691 184.396 327.243V339.243C184.396 339.795 184.844 340.243 185.396 340.243H197.396C197.948 340.243 198.396 339.795 198.396 339.243V327.243C198.396 326.691 197.948 326.243 197.396 326.243Z" fill="#4E4E4E" stroke="#626C84"/>
<path opacity="0.33" d="M327.227 326.243H228.673C228.121 326.243 227.673 326.691 227.673 327.243V339.243C227.673 339.795 228.121 340.243 228.673 340.243H327.227C327.779 340.243 328.227 339.795 328.227 339.243V327.243C328.227 326.691 327.779 326.243 327.227 326.243Z" fill="#4E4E4E" stroke="#626C84"/>
<path opacity="0.33" d="M348.866 326.243H336.866C336.314 326.243 335.866 326.691 335.866 327.243V339.243C335.866 339.795 336.314 340.243 336.866 340.243H348.866C349.418 340.243 349.866 339.795 349.866 339.243V327.243C349.866 326.691 349.418 326.243 348.866 326.243Z" fill="#4E4E4E" stroke="#626C84"/>
<path opacity="0.33" d="M380.505 334.118H372.505C371.953 334.118 371.505 334.566 371.505 335.118V339.243C371.505 339.795 371.953 340.243 372.505 340.243H380.505C381.057 340.243 381.505 339.795 381.505 339.243V335.118C381.505 334.566 381.057 334.118 380.505 334.118Z" fill="#4E4E4E" stroke="#626C84"/>
<path opacity="0.33" d="M380.505 326.243H372.505C371.953 326.243 371.505 326.691 371.505 327.243V331.368C371.505 331.92 371.953 332.368 372.505 332.368H380.505C381.057 332.368 381.505 331.92 381.505 331.368V327.243C381.505 326.691 381.057 326.243 380.505 326.243Z" fill="#4E4E4E" stroke="#626C84"/>
<path opacity="0.33" d="M394.505 334.118H386.505C385.953 334.118 385.505 334.566 385.505 335.118V339.243C385.505 339.795 385.953 340.243 386.505 340.243H394.505C395.057 340.243 395.505 339.795 395.505 339.243V335.118C395.505 334.566 395.057 334.118 394.505 334.118Z" fill="#4E4E4E" stroke="#626C84"/>
<path opacity="0.33" d="M366.505 334.118H358.505C357.953 334.118 357.505 334.566 357.505 335.118V339.243C357.505 339.795 357.953 340.243 358.505 340.243H366.505C367.057 340.243 367.505 339.795 367.505 339.243V335.118C367.505 334.566 367.057 334.118 366.505 334.118Z" fill="#4E4E4E" stroke="#626C84"/>
<path opacity="0.33" d="M217.035 306.323H185.396C184.844 306.323 184.396 306.771 184.396 307.323V319.323C184.396 319.875 184.844 320.323 185.396 320.323H217.035C217.587 320.323 218.035 319.875 218.035 319.323V307.323C218.035 306.771 217.587 306.323 217.035 306.323Z" fill="#4E4E4E" stroke="#626C84"/>
<path opacity="0.33" d="M238.854 306.323H226.854C226.302 306.323 225.854 306.771 225.854 307.323V319.323C225.854 319.875 226.302 320.323 226.854 320.323H238.854C239.406 320.323 239.854 319.875 239.854 319.323V307.323C239.854 306.771 239.406 306.323 238.854 306.323Z" fill="#4E4E4E" stroke="#626C84"/>
<path opacity="0.33" d="M260.493 306.323H248.493C247.941 306.323 247.493 306.771 247.493 307.323V319.323C247.493 319.875 247.941 320.323 248.493 320.323H260.493C261.045 320.323 261.493 319.875 261.493 319.323V307.323C261.493 306.771 261.045 306.323 260.493 306.323Z" fill="#4E4E4E" stroke="#626C84"/>
<path opacity="0.33" d="M282.131 306.323H270.131C269.579 306.323 269.131 306.771 269.131 307.323V319.323C269.131 319.875 269.579 320.323 270.131 320.323H282.131C282.683 320.323 283.131 319.875 283.131 319.323V307.323C283.131 306.771 282.683 306.323 282.131 306.323Z" fill="#4E4E4E" stroke="#626C84"/>
<path opacity="0.33" d="M303.77 306.323H291.77C291.218 306.323 290.77 306.771 290.77 307.323V319.323C290.77 319.875 291.218 320.323 291.77 320.323H303.77C304.322 320.323 304.77 319.875 304.77 319.323V307.323C304.77 306.771 304.322 306.323 303.77 306.323Z" fill="#4E4E4E" stroke="#626C84"/>
<path opacity="0.33" d="M325.408 306.323H313.408C312.856 306.323 312.408 306.771 312.408 307.323V319.323C312.408 319.875 312.856 320.323 313.408 320.323H325.408C325.96 320.323 326.408 319.875 326.408 319.323V307.323C326.408 306.771 325.96 306.323 325.408 306.323Z" fill="#4E4E4E" stroke="#626C84"/>
<path opacity="0.33" d="M347.047 306.323H335.047C334.495 306.323 334.047 306.771 334.047 307.323V319.323C334.047 319.875 334.495 320.323 335.047 320.323H347.047C347.599 320.323 348.047 319.875 348.047 319.323V307.323C348.047 306.771 347.599 306.323 347.047 306.323Z" fill="#4E4E4E" stroke="#626C84"/>
<path opacity="0.33" d="M394.505 306.323H358.505C357.953 306.323 357.505 306.771 357.505 307.323V319.323C357.505 319.875 357.953 320.323 358.505 320.323H394.505C395.057 320.323 395.505 319.875 395.505 319.323V307.323C395.505 306.771 395.057 306.323 394.505 306.323Z" fill="#4E4E4E" stroke="#626C84"/>
<path opacity="0.33" d="M231.035 285.843H219.035C218.483 285.843 218.035 286.291 218.035 286.843V298.843C218.035 299.395 218.483 299.843 219.035 299.843H231.035C231.587 299.843 232.035 299.395 232.035 298.843V286.843C232.035 286.291 231.587 285.843 231.035 285.843Z" fill="#4E4E4E" stroke="#626C84"/>
<path opacity="0.33" d="M209.396 285.843H185.396C184.844 285.843 184.396 286.291 184.396 286.843V298.843C184.396 299.395 184.844 299.843 185.396 299.843H209.396C209.948 299.843 210.396 299.395 210.396 298.843V286.843C210.396 286.291 209.948 285.843 209.396 285.843Z" fill="#4E4E4E" stroke="#626C84"/>
<path opacity="0.33" d="M252.673 285.843H240.673C240.121 285.843 239.673 286.291 239.673 286.843V298.843C239.673 299.395 240.121 299.843 240.673 299.843H252.673C253.225 299.843 253.673 299.395 253.673 298.843V286.843C253.673 286.291 253.225 285.843 252.673 285.843Z" fill="#4E4E4E" stroke="#626C84"/>
<path opacity="0.33" d="M274.312 285.843H262.312C261.76 285.843 261.312 286.291 261.312 286.843V298.843C261.312 299.395 261.76 299.843 262.312 299.843H274.312C274.864 299.843 275.312 299.395 275.312 298.843V286.843C275.312 286.291 274.864 285.843 274.312 285.843Z" fill="#4E4E4E" stroke="#626C84"/>
<path opacity="0.33" d="M295.95 285.843H283.95C283.398 285.843 282.95 286.291 282.95 286.843V298.843C282.95 299.395 283.398 299.843 283.95 299.843H295.95C296.502 299.843 296.95 299.395 296.95 298.843V286.843C296.95 286.291 296.502 285.843 295.95 285.843Z" fill="#4E4E4E" stroke="#626C84"/>
<path opacity="0.33" d="M317.589 285.843H305.589C305.037 285.843 304.589 286.291 304.589 286.843V298.843C304.589 299.395 305.037 299.843 305.589 299.843H317.589C318.141 299.843 318.589 299.395 318.589 298.843V286.843C318.589 286.291 318.141 285.843 317.589 285.843Z" fill="#4E4E4E" stroke="#626C84"/>
<path opacity="0.33" d="M339.228 285.843H327.228C326.676 285.843 326.228 286.291 326.228 286.843V298.843C326.228 299.395 326.676 299.843 327.228 299.843H339.228C339.78 299.843 340.228 299.395 340.228 298.843V286.843C340.228 286.291 339.78 285.843 339.228 285.843Z" fill="#4E4E4E" stroke="#626C84"/>
<path opacity="0.33" d="M360.866 285.843H348.866C348.314 285.843 347.866 286.291 347.866 286.843V298.843C347.866 299.395 348.314 299.843 348.866 299.843H360.866C361.418 299.843 361.866 299.395 361.866 298.843V286.843C361.866 286.291 361.418 285.843 360.866 285.843Z" fill="#4E4E4E" stroke="#626C84"/>
<path opacity="0.33" d="M394.505 285.843H370.505C369.953 285.843 369.505 286.291 369.505 286.843V298.843C369.505 299.395 369.953 299.843 370.505 299.843H394.505C395.057 299.843 395.505 299.395 395.505 298.843V286.843C395.505 286.291 395.057 285.843 394.505 285.843Z" fill="#4E4E4E" stroke="#626C84"/>
<path opacity="0.33" d="M219.297 266.243H207.297C206.745 266.243 206.297 266.691 206.297 267.243V279.243C206.297 279.795 206.745 280.243 207.297 280.243H219.297C219.849 280.243 220.297 279.795 220.297 279.243V267.243C220.297 266.691 219.849 266.243 219.297 266.243Z" fill="#4E4E4E" stroke="#626C84"/>
<path opacity="0.33" d="M197.396 266.243H185.396C184.844 266.243 184.396 266.691 184.396 267.243V279.243C184.396 279.795 184.844 280.243 185.396 280.243H197.396C197.948 280.243 198.396 279.795 198.396 279.243V267.243C198.396 266.691 197.948 266.243 197.396 266.243Z" fill="#4E4E4E" stroke="#626C84"/>
<path opacity="0.33" d="M241.198 266.243H229.198C228.646 266.243 228.198 266.691 228.198 267.243V279.243C228.198 279.795 228.646 280.243 229.198 280.243H241.198C241.75 280.243 242.198 279.795 242.198 279.243V267.243C242.198 266.691 241.75 266.243 241.198 266.243Z" fill="#4E4E4E" stroke="#626C84"/>
<path opacity="0.33" d="M263.099 266.243H251.099C250.547 266.243 250.099 266.691 250.099 267.243V279.243C250.099 279.795 250.547 280.243 251.099 280.243H263.099C263.651 280.243 264.099 279.795 264.099 279.243V267.243C264.099 266.691 263.651 266.243 263.099 266.243Z" fill="#4E4E4E" stroke="#626C84"/>
<path opacity="0.33" d="M285 266.243H273C272.448 266.243 272 266.691 272 267.243V279.243C272 279.795 272.448 280.243 273 280.243H285C285.552 280.243 286 279.795 286 279.243V267.243C286 266.691 285.552 266.243 285 266.243Z" fill="#4E4E4E" stroke="#626C84"/>
<path opacity="0.33" d="M306.901 266.243H294.901C294.349 266.243 293.901 266.691 293.901 267.243V279.243C293.901 279.795 294.349 280.243 294.901 280.243H306.901C307.453 280.243 307.901 279.795 307.901 279.243V267.243C307.901 266.691 307.453 266.243 306.901 266.243Z" fill="#4E4E4E" stroke="#626C84"/>
<path opacity="0.33" d="M328.802 266.243H316.802C316.25 266.243 315.802 266.691 315.802 267.243V279.243C315.802 279.795 316.25 280.243 316.802 280.243H328.802C329.354 280.243 329.802 279.795 329.802 279.243V267.243C329.802 266.691 329.354 266.243 328.802 266.243Z" fill="#4E4E4E" stroke="#626C84"/>
<path opacity="0.33" d="M350.703 266.243H338.703C338.151 266.243 337.703 266.691 337.703 267.243V279.243C337.703 279.795 338.151 280.243 338.703 280.243H350.703C351.255 280.243 351.703 279.795 351.703 279.243V267.243C351.703 266.691 351.255 266.243 350.703 266.243Z" fill="#4E4E4E" stroke="#626C84"/>
<path opacity="0.33" d="M372.604 266.243H360.604C360.052 266.243 359.604 266.691 359.604 267.243V279.243C359.604 279.795 360.052 280.243 360.604 280.243H372.604C373.156 280.243 373.604 279.795 373.604 279.243V267.243C373.604 266.691 373.156 266.243 372.604 266.243Z" fill="#4E4E4E" stroke="#626C84"/>
<path opacity="0.33" d="M394.505 266.243H382.505C381.953 266.243 381.505 266.691 381.505 267.243V279.243C381.505 279.795 381.953 280.243 382.505 280.243H394.505C395.057 280.243 395.505 279.795 395.505 279.243V267.243C395.505 266.691 395.057 266.243 394.505 266.243Z" fill="#4E4E4E" stroke="#626C84"/>
</g>
<path opacity="0.33" d="M219.035 326.243H207.035C206.483 326.243 206.035 326.691 206.035 327.243V339.243C206.035 339.795 206.483 340.243 207.035 340.243H219.035C219.587 340.243 220.035 339.795 220.035 339.243V327.243C220.035 326.691 219.587 326.243 219.035 326.243Z" fill="#4E4E4E"/>
<path opacity="0.33" d="M197.396 326.243H185.396C184.844 326.243 184.396 326.691 184.396 327.243V339.243C184.396 339.795 184.844 340.243 185.396 340.243H197.396C197.948 340.243 198.396 339.795 198.396 339.243V327.243C198.396 326.691 197.948 326.243 197.396 326.243Z" fill="#4E4E4E"/>
<path opacity="0.33" d="M327.227 326.243H228.673C228.121 326.243 227.673 326.691 227.673 327.243V339.243C227.673 339.795 228.121 340.243 228.673 340.243H327.227C327.779 340.243 328.227 339.795 328.227 339.243V327.243C328.227 326.691 327.779 326.243 327.227 326.243Z" fill="#4E4E4E"/>
<path opacity="0.33" d="M348.866 326.243H336.866C336.314 326.243 335.866 326.691 335.866 327.243V339.243C335.866 339.795 336.314 340.243 336.866 340.243H348.866C349.418 340.243 349.866 339.795 349.866 339.243V327.243C349.866 326.691 349.418 326.243 348.866 326.243Z" fill="#4E4E4E"/>
<path opacity="0.33" d="M380.505 334.118H372.505C371.953 334.118 371.505 334.566 371.505 335.118V339.243C371.505 339.795 371.953 340.243 372.505 340.243H380.505C381.057 340.243 381.505 339.795 381.505 339.243V335.118C381.505 334.566 381.057 334.118 380.505 334.118Z" fill="#4E4E4E"/>
<path opacity="0.33" d="M380.505 326.243H372.505C371.953 326.243 371.505 326.691 371.505 327.243V331.368C371.505 331.92 371.953 332.368 372.505 332.368H380.505C381.057 332.368 381.505 331.92 381.505 331.368V327.243C381.505 326.691 381.057 326.243 380.505 326.243Z" fill="#4E4E4E"/>
<path opacity="0.33" d="M394.505 334.118H386.505C385.953 334.118 385.505 334.566 385.505 335.118V339.243C385.505 339.795 385.953 340.243 386.505 340.243H394.505C395.057 340.243 395.505 339.795 395.505 339.243V335.118C395.505 334.566 395.057 334.118 394.505 334.118Z" fill="#4E4E4E"/>
<path opacity="0.33" d="M366.505 334.118H358.505C357.953 334.118 357.505 334.566 357.505 335.118V339.243C357.505 339.795 357.953 340.243 358.505 340.243H366.505C367.057 340.243 367.505 339.795 367.505 339.243V335.118C367.505 334.566 367.057 334.118 366.505 334.118Z" fill="#4E4E4E"/>
<path opacity="0.33" d="M217.035 306.323H185.396C184.844 306.323 184.396 306.771 184.396 307.323V319.323C184.396 319.875 184.844 320.323 185.396 320.323H217.035C217.587 320.323 218.035 319.875 218.035 319.323V307.323C218.035 306.771 217.587 306.323 217.035 306.323Z" fill="#4E4E4E"/>
<path opacity="0.33" d="M238.854 306.323H226.854C226.302 306.323 225.854 306.771 225.854 307.323V319.323C225.854 319.875 226.302 320.323 226.854 320.323H238.854C239.406 320.323 239.854 319.875 239.854 319.323V307.323C239.854 306.771 239.406 306.323 238.854 306.323Z" fill="#4E4E4E"/>
<path opacity="0.33" d="M260.493 306.323H248.493C247.941 306.323 247.493 306.771 247.493 307.323V319.323C247.493 319.875 247.941 320.323 248.493 320.323H260.493C261.045 320.323 261.493 319.875 261.493 319.323V307.323C261.493 306.771 261.045 306.323 260.493 306.323Z" fill="#4E4E4E"/>
<path opacity="0.33" d="M282.131 306.323H270.131C269.579 306.323 269.131 306.771 269.131 307.323V319.323C269.131 319.875 269.579 320.323 270.131 320.323H282.131C282.683 320.323 283.131 319.875 283.131 319.323V307.323C283.131 306.771 282.683 306.323 282.131 306.323Z" fill="#4E4E4E"/>
<path opacity="0.33" d="M303.77 306.323H291.77C291.218 306.323 290.77 306.771 290.77 307.323V319.323C290.77 319.875 291.218 320.323 291.77 320.323H303.77C304.322 320.323 304.77 319.875 304.77 319.323V307.323C304.77 306.771 304.322 306.323 303.77 306.323Z" fill="#4E4E4E"/>
<path opacity="0.33" d="M325.408 306.323H313.408C312.856 306.323 312.408 306.771 312.408 307.323V319.323C312.408 319.875 312.856 320.323 313.408 320.323H325.408C325.96 320.323 326.408 319.875 326.408 319.323V307.323C326.408 306.771 325.96 306.323 325.408 306.323Z" fill="#4E4E4E"/>
<path opacity="0.33" d="M347.047 306.323H335.047C334.495 306.323 334.047 306.771 334.047 307.323V319.323C334.047 319.875 334.495 320.323 335.047 320.323H347.047C347.599 320.323 348.047 319.875 348.047 319.323V307.323C348.047 306.771 347.599 306.323 347.047 306.323Z" fill="#4E4E4E"/>
<path opacity="0.33" d="M394.505 306.323H358.505C357.953 306.323 357.505 306.771 357.505 307.323V319.323C357.505 319.875 357.953 320.323 358.505 320.323H394.505C395.057 320.323 395.505 319.875 395.505 319.323V307.323C395.505 306.771 395.057 306.323 394.505 306.323Z" fill="#4E4E4E"/>
<path opacity="0.33" d="M231.035 285.843H219.035C218.483 285.843 218.035 286.291 218.035 286.843V298.843C218.035 299.395 218.483 299.843 219.035 299.843H231.035C231.587 299.843 232.035 299.395 232.035 298.843V286.843C232.035 286.291 231.587 285.843 231.035 285.843Z" fill="#4E4E4E"/>
<path opacity="0.33" d="M209.396 285.843H185.396C184.844 285.843 184.396 286.291 184.396 286.843V298.843C184.396 299.395 184.844 299.843 185.396 299.843H209.396C209.948 299.843 210.396 299.395 210.396 298.843V286.843C210.396 286.291 209.948 285.843 209.396 285.843Z" fill="#4E4E4E"/>
<path opacity="0.33" d="M252.673 285.843H240.673C240.121 285.843 239.673 286.291 239.673 286.843V298.843C239.673 299.395 240.121 299.843 240.673 299.843H252.673C253.225 299.843 253.673 299.395 253.673 298.843V286.843C253.673 286.291 253.225 285.843 252.673 285.843Z" fill="#4E4E4E"/>
<path opacity="0.33" d="M274.312 285.843H262.312C261.76 285.843 261.312 286.291 261.312 286.843V298.843C261.312 299.395 261.76 299.843 262.312 299.843H274.312C274.864 299.843 275.312 299.395 275.312 298.843V286.843C275.312 286.291 274.864 285.843 274.312 285.843Z" fill="#4E4E4E"/>
<path opacity="0.33" d="M295.95 285.843H283.95C283.398 285.843 282.95 286.291 282.95 286.843V298.843C282.95 299.395 283.398 299.843 283.95 299.843H295.95C296.502 299.843 296.95 299.395 296.95 298.843V286.843C296.95 286.291 296.502 285.843 295.95 285.843Z" fill="#4E4E4E"/>
<path opacity="0.33" d="M317.589 285.843H305.589C305.037 285.843 304.589 286.291 304.589 286.843V298.843C304.589 299.395 305.037 299.843 305.589 299.843H317.589C318.141 299.843 318.589 299.395 318.589 298.843V286.843C318.589 286.291 318.141 285.843 317.589 285.843Z" fill="#4E4E4E"/>
<path opacity="0.33" d="M339.228 285.843H327.228C326.676 285.843 326.228 286.291 326.228 286.843V298.843C326.228 299.395 326.676 299.843 327.228 299.843H339.228C339.78 299.843 340.228 299.395 340.228 298.843V286.843C340.228 286.291 339.78 285.843 339.228 285.843Z" fill="#4E4E4E"/>
<path opacity="0.33" d="M360.866 285.843H348.866C348.314 285.843 347.866 286.291 347.866 286.843V298.843C347.866 299.395 348.314 299.843 348.866 299.843H360.866C361.418 299.843 361.866 299.395 361.866 298.843V286.843C361.866 286.291 361.418 285.843 360.866 285.843Z" fill="#4E4E4E"/>
<path opacity="0.33" d="M394.505 285.843H370.505C369.953 285.843 369.505 286.291 369.505 286.843V298.843C369.505 299.395 369.953 299.843 370.505 299.843H394.505C395.057 299.843 395.505 299.395 395.505 298.843V286.843C395.505 286.291 395.057 285.843 394.505 285.843Z" fill="#4E4E4E"/>
<path opacity="0.33" d="M219.297 266.243H207.297C206.745 266.243 206.297 266.691 206.297 267.243V279.243C206.297 279.795 206.745 280.243 207.297 280.243H219.297C219.849 280.243 220.297 279.795 220.297 279.243V267.243C220.297 266.691 219.849 266.243 219.297 266.243Z" fill="#4E4E4E"/>
<path opacity="0.33" d="M197.396 266.243H185.396C184.844 266.243 184.396 266.691 184.396 267.243V279.243C184.396 279.795 184.844 280.243 185.396 280.243H197.396C197.948 280.243 198.396 279.795 198.396 279.243V267.243C198.396 266.691 197.948 266.243 197.396 266.243Z" fill="#4E4E4E"/>
<path opacity="0.33" d="M241.198 266.243H229.198C228.646 266.243 228.198 266.691 228.198 267.243V279.243C228.198 279.795 228.646 280.243 229.198 280.243H241.198C241.75 280.243 242.198 279.795 242.198 279.243V267.243C242.198 266.691 241.75 266.243 241.198 266.243Z" fill="#4E4E4E"/>
<path opacity="0.33" d="M263.099 266.243H251.099C250.547 266.243 250.099 266.691 250.099 267.243V279.243C250.099 279.795 250.547 280.243 251.099 280.243H263.099C263.651 280.243 264.099 279.795 264.099 279.243V267.243C264.099 266.691 263.651 266.243 263.099 266.243Z" fill="#4E4E4E"/>
<path opacity="0.33" d="M285 266.243H273C272.448 266.243 272 266.691 272 267.243V279.243C272 279.795 272.448 280.243 273 280.243H285C285.552 280.243 286 279.795 286 279.243V267.243C286 266.691 285.552 266.243 285 266.243Z" fill="#4E4E4E"/>
<path opacity="0.33" d="M306.901 266.243H294.901C294.349 266.243 293.901 266.691 293.901 267.243V279.243C293.901 279.795 294.349 280.243 294.901 280.243H306.901C307.453 280.243 307.901 279.795 307.901 279.243V267.243C307.901 266.691 307.453 266.243 306.901 266.243Z" fill="#4E4E4E"/>
<path opacity="0.33" d="M328.802 266.243H316.802C316.25 266.243 315.802 266.691 315.802 267.243V279.243C315.802 279.795 316.25 280.243 316.802 280.243H328.802C329.354 280.243 329.802 279.795 329.802 279.243V267.243C329.802 266.691 329.354 266.243 328.802 266.243Z" fill="#4E4E4E"/>
<path opacity="0.33" d="M350.703 266.243H338.703C338.151 266.243 337.703 266.691 337.703 267.243V279.243C337.703 279.795 338.151 280.243 338.703 280.243H350.703C351.255 280.243 351.703 279.795 351.703 279.243V267.243C351.703 266.691 351.255 266.243 350.703 266.243Z" fill="#4E4E4E"/>
<path opacity="0.33" d="M372.604 266.243H360.604C360.052 266.243 359.604 266.691 359.604 267.243V279.243C359.604 279.795 360.052 280.243 360.604 280.243H372.604C373.156 280.243 373.604 279.795 373.604 279.243V267.243C373.604 266.691 373.156 266.243 372.604 266.243Z" fill="#4E4E4E"/>
<path opacity="0.33" d="M394.505 266.243H382.505C381.953 266.243 381.505 266.691 381.505 267.243V279.243C381.505 279.795 381.953 280.243 382.505 280.243H394.505C395.057 280.243 395.505 279.795 395.505 279.243V267.243C395.505 266.691 395.057 266.243 394.505 266.243Z" fill="#4E4E4E"/>
<path opacity="0.33" fill-rule="evenodd" clip-rule="evenodd" d="M204.95 234.339H374.95V247.785C374.95 249.994 373.159 251.785 370.95 251.785H208.95C206.741 251.785 204.95 249.994 204.95 247.785V234.339Z" fill="#4E4E4E"/>
<path opacity="0.25" fill-rule="evenodd" clip-rule="evenodd" d="M370.95 247.784H208.95C206.741 247.784 204.95 245.993 204.95 243.784V247.784C204.95 249.993 206.741 251.784 208.95 251.784H370.95C373.159 251.784 374.95 249.993 374.95 247.784V243.784C374.95 245.993 373.159 247.784 370.95 247.784Z" fill="#4E4E4E"/>
<path opacity="0.33" fill-rule="evenodd" clip-rule="evenodd" d="M204.95 234.339H374.95V247.785C374.95 249.994 373.159 251.785 370.95 251.785H208.95C206.741 251.785 204.95 249.994 204.95 247.785V234.339Z" fill="#4E4E4E" stroke="#46505C" stroke-width="2"/>
<path opacity="0.33" d="M324.951 353.743H254.951C253.846 353.743 252.951 354.638 252.951 355.743V402.743C252.951 403.848 253.846 404.743 254.951 404.743H324.951C326.056 404.743 326.951 403.848 326.951 402.743V355.743C326.951 354.638 326.056 353.743 324.951 353.743Z" fill="#4E4E4E"/>
<path opacity="0.33" d="M324.951 353.743H254.951C253.846 353.743 252.951 354.638 252.951 355.743V402.743C252.951 403.848 253.846 404.743 254.951 404.743H324.951C326.056 404.743 326.951 403.848 326.951 402.743V355.743C326.951 354.638 326.056 353.743 324.951 353.743Z" fill="#4E4E4E" stroke="#626C84"/>
</g>
</g>
<g opacity="0.33">
<g opacity="0.33">
<path opacity="0.33" fill-rule="evenodd" clip-rule="evenodd" d="M69.4552 343.313L77.1713 332.285C77.3902 331.971 77.8215 331.895 78.1345 332.114L86.01 337.624C86.323 337.843 86.3992 338.274 86.1803 338.588L78.4642 349.616C76.8819 351.878 73.7658 352.428 71.5042 350.846L70.6852 350.273C68.4236 348.691 67.8729 345.575 69.4552 343.313Z" fill="#4E4E4E" stroke="#46505C" stroke-width="3.99818"/>
<path opacity="0.33" fill-rule="evenodd" clip-rule="evenodd" d="M69.4552 343.313L77.1713 332.285C77.3902 331.971 77.8215 331.895 78.1345 332.114L86.01 337.624C86.323 337.843 86.3992 338.274 86.1803 338.588L78.4642 349.616C76.8819 351.878 73.7658 352.428 71.5042 350.846L70.6852 350.273C68.4236 348.691 67.8729 345.575 69.4552 343.313Z" fill="#4E4E4E" stroke="#46505C" stroke-width="3.99818"/>
<path opacity="0.33" d="M99.084 343.498C117.075 343.498 131.66 328.913 131.66 310.922C131.66 292.931 117.075 278.346 99.084 278.346C81.0928 278.346 66.508 292.931 66.508 310.922C66.508 328.913 81.0928 343.498 99.084 343.498Z" fill="#4E4E4E" stroke="#46505C" stroke-width="4"/>
<path opacity="0.33" d="M99.084 343.498C117.075 343.498 131.66 328.913 131.66 310.922C131.66 292.931 117.075 278.346 99.084 278.346C81.0928 278.346 66.508 292.931 66.508 310.922C66.508 328.913 81.0928 343.498 99.084 343.498Z" fill="#4E4E4E" stroke="#46505C" stroke-width="4"/>
<path opacity="0.33" d="M99.084 336.277C113.087 336.277 124.439 324.925 124.439 310.922C124.439 296.919 113.087 285.567 99.084 285.567C85.0808 285.567 73.729 296.919 73.729 310.922C73.729 324.925 85.0808 336.277 99.084 336.277Z" fill="#4E4E4E" stroke="#46505C" stroke-width="4"/>
<path opacity="0.33" d="M99.084 336.277C113.087 336.277 124.439 324.925 124.439 310.922C124.439 296.919 113.087 285.567 99.084 285.567C85.0808 285.567 73.729 296.919 73.729 310.922C73.729 324.925 85.0808 336.277 99.084 336.277Z" fill="#4E4E4E" stroke="#46505C" stroke-width="4"/>
<path opacity="0.33" fill-rule="evenodd" clip-rule="evenodd" d="M82.509 305.659C82.848 304.895 83.215 304.146 83.589 303.413C85.289 300.081 87.322 296.627 90.567 294.586C93.322 292.852 97.175 292.173 100.161 293.707C102.751 295.037 104.312 297.772 106.675 299.474C108.268 300.45 109.923 301.32 111.629 302.079C113.352 302.854 114.715 304.256 115.442 306C116.242 308.444 114.923 311.052 114.91 313.624C114.906 315.043 115.299 316.435 116.047 317.641C116.519 318.205 116.822 318.891 116.922 319.62C116.776 320.571 116.116 321.364 115.207 321.68C112.581 322.921 109.514 322.473 106.626 322.161C103.738 321.849 100.54 321.783 98.257 323.579C97.3224 324.441 96.4567 325.374 95.668 326.371C94.9935 327.382 93.9025 328.039 92.6932 328.163C91.4838 328.286 90.2826 327.862 89.418 327.008C87.3482 325.274 85.5526 323.238 84.092 320.967C82.5568 319.046 81.4724 316.806 80.919 314.41C80.4 311.435 81.265 308.458 82.509 305.659Z" fill="#4E4E4E" stroke="#46505C" stroke-width="4"/>
<path opacity="0.33" d="M104.212 330.117C105.081 330.117 105.786 329.412 105.786 328.543C105.786 327.674 105.081 326.969 104.212 326.969C103.343 326.969 102.638 327.674 102.638 328.543C102.638 329.412 103.343 330.117 104.212 330.117Z" fill="#4E4E4E" stroke="#46505C" stroke-width="4"/>
<path opacity="0.33" d="M100.115 330.214C100.717 330.214 101.205 329.726 101.205 329.124C101.205 328.522 100.717 328.034 100.115 328.034C99.513 328.034 99.025 328.522 99.025 329.124C99.025 329.726 99.513 330.214 100.115 330.214Z" fill="#4E4E4E" stroke="#46505C" stroke-width="4"/>
<path opacity="0.33" d="M107.931 328.067C108.477 328.067 108.919 327.625 108.919 327.079C108.919 326.533 108.477 326.091 107.931 326.091C107.385 326.091 106.943 326.533 106.943 327.079C106.943 327.625 107.385 328.067 107.931 328.067Z" fill="#4E4E4E" stroke="#46505C" stroke-width="4"/>
<path opacity="0.33" d="M96.667 330.24C97.058 330.24 97.375 329.923 97.375 329.532C97.375 329.141 97.058 328.824 96.667 328.824C96.276 328.824 95.959 329.141 95.959 329.532C95.959 329.923 96.276 330.24 96.667 330.24Z" fill="#4E4E4E" stroke="#46505C" stroke-width="4"/>
<path opacity="0.33" d="M111.052 326.467C111.291 326.467 111.484 326.274 111.484 326.035C111.484 325.796 111.291 325.603 111.052 325.603C110.813 325.603 110.62 325.796 110.62 326.035C110.62 326.274 110.813 326.467 111.052 326.467Z" fill="#4E4E4E" stroke="#46505C" stroke-width="4"/>
<path opacity="0.33" d="M79.409 305.945C79.969 305.945 80.423 305.491 80.423 304.931C80.423 304.371 79.969 303.917 79.409 303.917C78.849 303.917 78.395 304.371 78.395 304.931C78.395 305.491 78.849 305.945 79.409 305.945Z" fill="#4E4E4E" stroke="#46505C" stroke-width="4"/>
<path opacity="0.33" d="M107.014 294.087C107.541 294.087 107.968 293.66 107.968 293.133C107.968 292.606 107.541 292.179 107.014 292.179C106.487 292.179 106.06 292.606 106.06 293.133C106.06 293.66 106.487 294.087 107.014 294.087Z" fill="#4E4E4E" stroke="#46505C" stroke-width="4"/>
<path opacity="0.33" d="M113.215 298.697C113.692 298.697 114.079 298.31 114.079 297.833C114.079 297.356 113.692 296.969 113.215 296.969C112.738 296.969 112.351 297.356 112.351 297.833C112.351 298.31 112.738 298.697 113.215 298.697Z" fill="#4E4E4E" stroke="#46505C" stroke-width="4"/>
<path opacity="0.33" d="M113.924 300.659C114.133 300.659 114.302 300.49 114.302 300.281C114.302 300.072 114.133 299.903 113.924 299.903C113.715 299.903 113.546 300.072 113.546 300.281C113.546 300.49 113.715 300.659 113.924 300.659Z" fill="#4E4E4E" stroke="#46505C" stroke-width="4"/>
</g>
</g>
<path fill-rule="evenodd" clip-rule="evenodd" d="M62.3759 335.281L70.097 324.249C70.3162 323.936 70.7477 323.86 71.0608 324.079L78.9388 329.593C79.2519 329.812 79.3281 330.244 79.1089 330.557L71.3878 341.588C69.8044 343.851 66.6868 344.401 64.4244 342.817L63.6052 342.244C61.3428 340.661 60.7925 337.543 62.3759 335.281Z" fill="white" stroke="#E6F3FF" stroke-width="2"/>
<path opacity="0.18" fill-rule="evenodd" clip-rule="evenodd" d="M71.06 324.081C70.7468 323.863 70.3158 323.939 70.097 324.252L66.62 329.218C67.9531 330.488 69.3802 331.656 70.889 332.712C72.3975 333.767 73.9825 334.708 75.631 335.527L79.108 330.559C79.2135 330.409 79.2549 330.223 79.223 330.042C79.1911 329.861 79.0886 329.701 78.938 329.596L71.06 324.081Z" fill="#4E4E4E" stroke="#46505C" stroke-width="4"/>
<path fill-rule="evenodd" clip-rule="evenodd" d="M62.3759 335.281L70.097 324.249C70.3162 323.936 70.7477 323.86 71.0608 324.079L78.9388 329.593C79.2519 329.812 79.3281 330.244 79.1089 330.557L71.3878 341.588C69.8044 343.851 66.6868 344.401 64.4244 342.817L63.6052 342.244C61.3428 340.661 60.7925 337.543 62.3759 335.281Z" stroke="#46505C" stroke-width="4"/>
<path d="M91.862 335.322C109.853 335.322 124.438 320.737 124.438 302.746C124.438 284.755 109.853 270.17 91.862 270.17C73.8708 270.17 59.286 284.755 59.286 302.746C59.286 320.737 73.8708 335.322 91.862 335.322Z" fill="white" stroke="#E6F3FF" stroke-width="2"/>
<path d="M91.862 335.322C109.853 335.322 124.438 320.737 124.438 302.746C124.438 284.755 109.853 270.17 91.862 270.17C73.8708 270.17 59.286 284.755 59.286 302.746C59.286 320.737 73.8708 335.322 91.862 335.322Z" stroke="#46505C" stroke-width="4"/>
<path d="M91.862 328.101C105.865 328.101 117.217 316.749 117.217 302.746C117.217 288.743 105.865 277.391 91.862 277.391C77.8588 277.391 66.507 288.743 66.507 302.746C66.507 316.749 77.8588 328.101 91.862 328.101Z" fill="#845B5B"/>
<path d="M91.862 328.101C105.865 328.101 117.217 316.749 117.217 302.746C117.217 288.743 105.865 277.391 91.862 277.391C77.8588 277.391 66.507 288.743 66.507 302.746C66.507 316.749 77.8588 328.101 91.862 328.101Z" stroke="#46505C" stroke-width="2"/>
<path opacity="0.33" fill-rule="evenodd" clip-rule="evenodd" d="M75.287 297.482C75.626 296.719 75.993 295.969 76.367 295.236C78.067 291.905 80.101 288.451 83.345 286.409C86.101 284.675 89.953 283.997 92.939 285.53C95.529 286.86 97.09 289.596 99.453 291.297C101.046 292.271 102.701 293.139 104.408 293.897C106.13 294.672 107.493 296.073 108.221 297.815C109.021 300.26 107.702 302.868 107.688 305.439C107.684 306.858 108.077 308.25 108.825 309.456C109.297 310.02 109.601 310.706 109.701 311.435C109.555 312.387 108.895 313.179 107.986 313.496C105.359 314.736 102.292 314.289 99.404 313.976C96.516 313.663 93.319 313.599 91.035 315.394C90.1006 316.256 89.235 317.189 88.446 318.186C87.7715 319.197 86.6806 319.854 85.4713 319.978C84.2621 320.101 83.0609 319.678 82.196 318.824C80.1264 317.09 78.3308 315.053 76.87 312.782C75.3362 310.863 74.2529 308.624 73.7 306.23C73.173 303.258 74.044 300.281 75.287 297.482Z" fill="#845B5B"/>
<path opacity="0.33" d="M96.99 321.94C97.8593 321.94 98.564 321.235 98.564 320.366C98.564 319.497 97.8593 318.792 96.99 318.792C96.1207 318.792 95.416 319.497 95.416 320.366C95.416 321.235 96.1207 321.94 96.99 321.94Z" fill="#845B5B"/>
<path opacity="0.33" d="M92.893 322.037C93.495 322.037 93.983 321.549 93.983 320.947C93.983 320.345 93.495 319.857 92.893 319.857C92.291 319.857 91.803 320.345 91.803 320.947C91.803 321.549 92.291 322.037 92.893 322.037Z" fill="#845B5B"/>
<path opacity="0.33" d="M100.709 319.891C101.255 319.891 101.697 319.449 101.697 318.903C101.697 318.357 101.255 317.915 100.709 317.915C100.163 317.915 99.721 318.357 99.721 318.903C99.721 319.449 100.163 319.891 100.709 319.891Z" fill="#845B5B"/>
<path opacity="0.33" d="M89.445 322.064C89.836 322.064 90.153 321.747 90.153 321.356C90.153 320.965 89.836 320.648 89.445 320.648C89.054 320.648 88.737 320.965 88.737 321.356C88.737 321.747 89.054 322.064 89.445 322.064Z" fill="#845B5B"/>
<path opacity="0.33" d="M103.83 318.291C104.069 318.291 104.262 318.098 104.262 317.859C104.262 317.62 104.069 317.427 103.83 317.427C103.591 317.427 103.398 317.62 103.398 317.859C103.398 318.098 103.591 318.291 103.83 318.291Z" fill="#845B5B"/>
<path opacity="0.33" d="M72.187 297.769C72.747 297.769 73.201 297.315 73.201 296.755C73.201 296.195 72.747 295.741 72.187 295.741C71.627 295.741 71.173 296.195 71.173 296.755C71.173 297.315 71.627 297.769 72.187 297.769Z" fill="#845B5B"/>
<path opacity="0.33" d="M99.792 285.91C100.319 285.91 100.746 285.483 100.746 284.956C100.746 284.429 100.319 284.002 99.792 284.002C99.2651 284.002 98.838 284.429 98.838 284.956C98.838 285.483 99.2651 285.91 99.792 285.91Z" fill="#845B5B"/>
<path opacity="0.33" d="M105.993 290.52C106.47 290.52 106.857 290.133 106.857 289.656C106.857 289.179 106.47 288.792 105.993 288.792C105.516 288.792 105.129 289.179 105.129 289.656C105.129 290.133 105.516 290.52 105.993 290.52Z" fill="#845B5B"/>
<path opacity="0.33" d="M106.702 292.482C106.911 292.482 107.08 292.313 107.08 292.104C107.08 291.895 106.911 291.726 106.702 291.726C106.493 291.726 106.324 291.895 106.324 292.104C106.324 292.313 106.493 292.482 106.702 292.482Z" fill="#845B5B"/>
<path d="M94.084 306.84C95.1886 306.84 96.084 305.945 96.084 304.84C96.084 303.735 95.1886 302.84 94.084 302.84C92.9794 302.84 92.084 303.735 92.084 304.84C92.084 305.945 92.9794 306.84 94.084 306.84Z" fill="#845B5B"/>
<path d="M87.57 300.659C89.503 300.659 91.07 299.092 91.07 297.159C91.07 295.226 89.503 293.659 87.57 293.659C85.637 293.659 84.07 295.226 84.07 297.159C84.07 299.092 85.637 300.659 87.57 300.659Z" fill="#845B5B"/>
<path d="M398 69.904H166C158.268 69.904 152 76.172 152 83.904V219.904C152 227.636 158.268 233.904 166 233.904H398C405.732 233.904 412 227.636 412 219.904V83.904C412 76.172 405.732 69.904 398 69.904Z" stroke="black"/>
<path d="M398 69.904H166C158.268 69.904 152 76.172 152 83.904V219.904C152 227.636 158.268 233.904 166 233.904H398C405.732 233.904 412 227.636 412 219.904V83.904C412 76.172 405.732 69.904 398 69.904Z" fill="#626C84"/>
<path d="M398 69.904H166C158.268 69.904 152 76.172 152 83.904V219.904C152 227.636 158.268 233.904 166 233.904H398C405.732 233.904 412 227.636 412 219.904V83.904C412 76.172 405.732 69.904 398 69.904Z" fill="#626C84"/>
<path opacity="0.17" d="M398 69.904H166C158.268 69.904 152 76.172 152 83.904V210.92C152 218.652 158.268 224.92 166 224.92H398C405.732 224.92 412 218.652 412 210.92V83.904C412 76.172 405.732 69.904 398 69.904Z" fill="#626C84"/>
<path opacity="0.1" fill-rule="evenodd" clip-rule="evenodd" d="M166 73.9H398C405.732 73.9 412 80.168 412 87.9V219.9V83.9C412 76.168 405.732 69.9 398 69.9H166C158.268 69.9 152 76.168 152 83.9V87.9C152 80.168 158.268 73.9 166 73.9Z" fill="white"/>
<g opacity="0.1">
<g opacity="0.1">
<path opacity="0.1" fill-rule="evenodd" clip-rule="evenodd" d="M231.227 233.904H247.296L366.449 69.904H350.38L231.227 233.904Z" fill="white"/>
<path opacity="0.1" fill-rule="evenodd" clip-rule="evenodd" d="M256.566 233.904H261.51L380.664 69.904H375.719L256.566 233.904Z" fill="white"/>
</g>
</g>
<path d="M398 69.904H166C158.268 69.904 152 76.172 152 83.904V219.904C152 227.636 158.268 233.904 166 233.904H398C405.732 233.904 412 227.636 412 219.904V83.904C412 76.172 405.732 69.904 398 69.904Z" stroke="#46505C" stroke-width="4"/>
<path fill-rule="evenodd" clip-rule="evenodd" d="M394 88.384V214.384H170V88.384L394 88.384Z" fill="#F65F34"/>
<g opacity="0.06">
<g opacity="0.06">
<path opacity="0.06" fill-rule="evenodd" clip-rule="evenodd" d="M246.409 214.384H262.478L354.022 88.384H337.953L246.409 214.384Z" fill="white"/>
<path opacity="0.06" fill-rule="evenodd" clip-rule="evenodd" d="M271.748 214.384H276.693L368.237 88.384H363.293L271.748 214.384Z" fill="white"/>
</g>
</g>
<path fill-rule="evenodd" clip-rule="evenodd" d="M394 88.384V214.384H170V88.384L394 88.384Z" stroke="#46505C"/>
<path d="M398 233.904H166C158.268 233.904 152 240.172 152 247.904V391.904C152 399.636 158.268 405.904 166 405.904H398C405.732 405.904 412 399.636 412 391.904V247.904C412 240.172 405.732 233.904 398 233.904Z" fill="#E6F3FF"/>
<path d="M408 391.904V247.904C408 242.381 403.523 237.904 398 237.904L166 237.904C160.477 237.904 156 242.381 156 247.904V391.904C156 397.427 160.477 401.904 166 401.904H398C403.523 401.904 408 397.427 408 391.904Z" fill="white" stroke="#E6F3FF" stroke-width="2"/>
<path fill-rule="evenodd" clip-rule="evenodd" d="M265.949 398.084H298.049C300.258 398.084 302.049 399.875 302.049 402.084V405.904H261.949V402.084C261.949 399.875 263.74 398.084 265.949 398.084Z" fill="#E6F3FF"/>
<path d="M398 233.904H166C158.268 233.904 152 240.172 152 247.904V391.904C152 399.636 158.268 405.904 166 405.904H398C405.732 405.904 412 399.636 412 391.904V247.904C412 240.172 405.732 233.904 398 233.904Z" stroke="#46505C" stroke-width="4"/>
<path d="M394 247.323H170C168.343 247.323 167 248.666 167 250.323V336.323C167 337.98 168.343 339.323 170 339.323H394C395.657 339.323 397 337.98 397 336.323V250.323C397 248.666 395.657 247.323 394 247.323Z" fill="#E6F3FF"/>
<path d="M211.084 316.823H199.084C198.532 316.823 198.084 317.271 198.084 317.823V329.823C198.084 330.375 198.532 330.823 199.084 330.823H211.084C211.636 330.823 212.084 330.375 212.084 329.823V317.823C212.084 317.271 211.636 316.823 211.084 316.823Z" stroke="#626C84"/>
<path d="M189.446 316.823H177.446C176.894 316.823 176.446 317.271 176.446 317.823V329.823C176.446 330.375 176.894 330.823 177.446 330.823H189.446C189.998 330.823 190.446 330.375 190.446 329.823V317.823C190.446 317.271 189.998 316.823 189.446 316.823Z" stroke="#626C84"/>
<path d="M319.277 316.823H220.723C220.171 316.823 219.723 317.271 219.723 317.823V329.823C219.723 330.375 220.171 330.823 220.723 330.823H319.277C319.829 330.823 320.277 330.375 320.277 329.823V317.823C320.277 317.271 319.829 316.823 319.277 316.823Z" stroke="#626C84"/>
<path d="M340.916 316.823H328.916C328.364 316.823 327.916 317.271 327.916 317.823V329.823C327.916 330.375 328.364 330.823 328.916 330.823H340.916C341.468 330.823 341.916 330.375 341.916 329.823V317.823C341.916 317.271 341.468 316.823 340.916 316.823Z" stroke="#626C84"/>
<path d="M372.554 324.698H364.554C364.002 324.698 363.554 325.146 363.554 325.698V329.823C363.554 330.375 364.002 330.823 364.554 330.823H372.554C373.106 330.823 373.554 330.375 373.554 329.823V325.698C373.554 325.146 373.106 324.698 372.554 324.698Z" stroke="#626C84"/>
<path d="M372.554 316.823H364.554C364.002 316.823 363.554 317.271 363.554 317.823V321.948C363.554 322.5 364.002 322.948 364.554 322.948H372.554C373.106 322.948 373.554 322.5 373.554 321.948V317.823C373.554 317.271 373.106 316.823 372.554 316.823Z" stroke="#626C84"/>
<path d="M386.554 324.698H378.554C378.002 324.698 377.554 325.146 377.554 325.698V329.823C377.554 330.375 378.002 330.823 378.554 330.823H386.554C387.106 330.823 387.554 330.375 387.554 329.823V325.698C387.554 325.146 387.106 324.698 386.554 324.698Z" stroke="#626C84"/>
<path d="M358.554 324.698H350.554C350.002 324.698 349.554 325.146 349.554 325.698V329.823C349.554 330.375 350.002 330.823 350.554 330.823H358.554C359.106 330.823 359.554 330.375 359.554 329.823V325.698C359.554 325.146 359.106 324.698 358.554 324.698Z" stroke="#626C84"/>
<path d="M209.085 296.904H177.446C176.894 296.904 176.446 297.352 176.446 297.904V309.904C176.446 310.456 176.894 310.904 177.446 310.904H209.085C209.637 310.904 210.085 310.456 210.085 309.904V297.904C210.085 297.352 209.637 296.904 209.085 296.904Z" stroke="#626C84"/>
<path d="M230.904 296.904H218.904C218.352 296.904 217.904 297.352 217.904 297.904V309.904C217.904 310.456 218.352 310.904 218.904 310.904H230.904C231.456 310.904 231.904 310.456 231.904 309.904V297.904C231.904 297.352 231.456 296.904 230.904 296.904Z" stroke="#626C84"/>
<path d="M252.542 296.904H240.542C239.99 296.904 239.542 297.352 239.542 297.904V309.904C239.542 310.456 239.99 310.904 240.542 310.904H252.542C253.094 310.904 253.542 310.456 253.542 309.904V297.904C253.542 297.352 253.094 296.904 252.542 296.904Z" stroke="#626C84"/>
<path d="M274.181 296.904H262.181C261.629 296.904 261.181 297.352 261.181 297.904V309.904C261.181 310.456 261.629 310.904 262.181 310.904H274.181C274.733 310.904 275.181 310.456 275.181 309.904V297.904C275.181 297.352 274.733 296.904 274.181 296.904Z" stroke="#626C84"/>
<path d="M295.819 296.904H283.819C283.267 296.904 282.819 297.352 282.819 297.904V309.904C282.819 310.456 283.267 310.904 283.819 310.904H295.819C296.371 310.904 296.819 310.456 296.819 309.904V297.904C296.819 297.352 296.371 296.904 295.819 296.904Z" stroke="#626C84"/>
<path d="M317.458 296.904H305.458C304.906 296.904 304.458 297.352 304.458 297.904V309.904C304.458 310.456 304.906 310.904 305.458 310.904H317.458C318.01 310.904 318.458 310.456 318.458 309.904V297.904C318.458 297.352 318.01 296.904 317.458 296.904Z" stroke="#626C84"/>
<path d="M339.096 296.904H327.096C326.544 296.904 326.096 297.352 326.096 297.904V309.904C326.096 310.456 326.544 310.904 327.096 310.904H339.096C339.648 310.904 340.096 310.456 340.096 309.904V297.904C340.096 297.352 339.648 296.904 339.096 296.904Z" stroke="#626C84"/>
<path d="M386.554 296.904H350.554C350.002 296.904 349.554 297.352 349.554 297.904V309.904C349.554 310.456 350.002 310.904 350.554 310.904H386.554C387.106 310.904 387.554 310.456 387.554 309.904V297.904C387.554 297.352 387.106 296.904 386.554 296.904Z" stroke="#626C84"/>
<path d="M223.084 276.424H211.084C210.532 276.424 210.084 276.872 210.084 277.424V289.424C210.084 289.976 210.532 290.424 211.084 290.424H223.084C223.636 290.424 224.084 289.976 224.084 289.424V277.424C224.084 276.872 223.636 276.424 223.084 276.424Z" stroke="#626C84"/>
<path d="M201.446 276.424H177.446C176.894 276.424 176.446 276.872 176.446 277.424V289.424C176.446 289.976 176.894 290.424 177.446 290.424H201.446C201.998 290.424 202.446 289.976 202.446 289.424V277.424C202.446 276.872 201.998 276.424 201.446 276.424Z" stroke="#626C84"/>
<path d="M244.723 276.424H232.723C232.171 276.424 231.723 276.872 231.723 277.424V289.424C231.723 289.976 232.171 290.424 232.723 290.424H244.723C245.275 290.424 245.723 289.976 245.723 289.424V277.424C245.723 276.872 245.275 276.424 244.723 276.424Z" stroke="#626C84"/>
<path d="M266.361 276.424H254.361C253.809 276.424 253.361 276.872 253.361 277.424V289.424C253.361 289.976 253.809 290.424 254.361 290.424H266.361C266.913 290.424 267.361 289.976 267.361 289.424V277.424C267.361 276.872 266.913 276.424 266.361 276.424Z" stroke="#626C84"/>
<path d="M288 276.424H276C275.448 276.424 275 276.872 275 277.424V289.424C275 289.976 275.448 290.424 276 290.424H288C288.552 290.424 289 289.976 289 289.424V277.424C289 276.872 288.552 276.424 288 276.424Z" stroke="#626C84"/>
<path d="M309.639 276.424H297.639C297.087 276.424 296.639 276.872 296.639 277.424V289.424C296.639 289.976 297.087 290.424 297.639 290.424H309.639C310.191 290.424 310.639 289.976 310.639 289.424V277.424C310.639 276.872 310.191 276.424 309.639 276.424Z" stroke="#626C84"/>
<path d="M331.277 276.424H319.277C318.725 276.424 318.277 276.872 318.277 277.424V289.424C318.277 289.976 318.725 290.424 319.277 290.424H331.277C331.829 290.424 332.277 289.976 332.277 289.424V277.424C332.277 276.872 331.829 276.424 331.277 276.424Z" stroke="#626C84"/>
<path d="M352.916 276.424H340.916C340.364 276.424 339.916 276.872 339.916 277.424V289.424C339.916 289.976 340.364 290.424 340.916 290.424H352.916C353.468 290.424 353.916 289.976 353.916 289.424V277.424C353.916 276.872 353.468 276.424 352.916 276.424Z" stroke="#626C84"/>
<path d="M386.554 276.424H362.554C362.002 276.424 361.554 276.872 361.554 277.424V289.424C361.554 289.976 362.002 290.424 362.554 290.424H386.554C387.106 290.424 387.554 289.976 387.554 289.424V277.424C387.554 276.872 387.106 276.424 386.554 276.424Z" stroke="#626C84"/>
<path d="M211.347 256.823H199.347C198.795 256.823 198.347 257.271 198.347 257.823V269.823C198.347 270.375 198.795 270.823 199.347 270.823H211.347C211.899 270.823 212.347 270.375 212.347 269.823V257.823C212.347 257.271 211.899 256.823 211.347 256.823Z" stroke="#626C84"/>
<path d="M189.446 256.823H177.446C176.894 256.823 176.446 257.271 176.446 257.823V269.823C176.446 270.375 176.894 270.823 177.446 270.823H189.446C189.998 270.823 190.446 270.375 190.446 269.823V257.823C190.446 257.271 189.998 256.823 189.446 256.823Z" stroke="#626C84"/>
<path d="M233.248 256.823H221.248C220.696 256.823 220.248 257.271 220.248 257.823V269.823C220.248 270.375 220.696 270.823 221.248 270.823H233.248C233.8 270.823 234.248 270.375 234.248 269.823V257.823C234.248 257.271 233.8 256.823 233.248 256.823Z" stroke="#626C84"/>
<path d="M255.149 256.823H243.149C242.597 256.823 242.149 257.271 242.149 257.823V269.823C242.149 270.375 242.597 270.823 243.149 270.823H255.149C255.701 270.823 256.149 270.375 256.149 269.823V257.823C256.149 257.271 255.701 256.823 255.149 256.823Z" stroke="#626C84"/>
<path d="M277.05 256.823H265.05C264.498 256.823 264.05 257.271 264.05 257.823V269.823C264.05 270.375 264.498 270.823 265.05 270.823H277.05C277.602 270.823 278.05 270.375 278.05 269.823V257.823C278.05 257.271 277.602 256.823 277.05 256.823Z" stroke="#626C84"/>
<path d="M298.95 256.823H286.95C286.398 256.823 285.95 257.271 285.95 257.823V269.823C285.95 270.375 286.398 270.823 286.95 270.823H298.95C299.502 270.823 299.95 270.375 299.95 269.823V257.823C299.95 257.271 299.502 256.823 298.95 256.823Z" stroke="#626C84"/>
<path d="M320.851 256.823H308.851C308.299 256.823 307.851 257.271 307.851 257.823V269.823C307.851 270.375 308.299 270.823 308.851 270.823H320.851C321.403 270.823 321.851 270.375 321.851 269.823V257.823C321.851 257.271 321.403 256.823 320.851 256.823Z" stroke="#626C84"/>
<path d="M342.752 256.823H330.752C330.2 256.823 329.752 257.271 329.752 257.823V269.823C329.752 270.375 330.2 270.823 330.752 270.823H342.752C343.304 270.823 343.752 270.375 343.752 269.823V257.823C343.752 257.271 343.304 256.823 342.752 256.823Z" stroke="#626C84"/>
<path d="M364.653 256.823H352.653C352.101 256.823 351.653 257.271 351.653 257.823V269.823C351.653 270.375 352.101 270.823 352.653 270.823H364.653C365.205 270.823 365.653 270.375 365.653 269.823V257.823C365.653 257.271 365.205 256.823 364.653 256.823Z" stroke="#626C84"/>
<path d="M386.554 256.823H374.554C374.002 256.823 373.554 257.271 373.554 257.823V269.823C373.554 270.375 374.002 270.823 374.554 270.823H386.554C387.106 270.823 387.554 270.375 387.554 269.823V257.823C387.554 257.271 387.106 256.823 386.554 256.823Z" stroke="#626C84"/>
<path d="M211.084 316.823H199.084C198.532 316.823 198.084 317.271 198.084 317.823V329.823C198.084 330.375 198.532 330.823 199.084 330.823H211.084C211.636 330.823 212.084 330.375 212.084 329.823V317.823C212.084 317.271 211.636 316.823 211.084 316.823Z" fill="#626C84"/>
<path d="M189.446 316.823H177.446C176.894 316.823 176.446 317.271 176.446 317.823V329.823C176.446 330.375 176.894 330.823 177.446 330.823H189.446C189.998 330.823 190.446 330.375 190.446 329.823V317.823C190.446 317.271 189.998 316.823 189.446 316.823Z" fill="#626C84"/>
<path d="M319.277 316.823H220.723C220.171 316.823 219.723 317.271 219.723 317.823V329.823C219.723 330.375 220.171 330.823 220.723 330.823H319.277C319.829 330.823 320.277 330.375 320.277 329.823V317.823C320.277 317.271 319.829 316.823 319.277 316.823Z" fill="#626C84"/>
<path d="M340.916 316.823H328.916C328.364 316.823 327.916 317.271 327.916 317.823V329.823C327.916 330.375 328.364 330.823 328.916 330.823H340.916C341.468 330.823 341.916 330.375 341.916 329.823V317.823C341.916 317.271 341.468 316.823 340.916 316.823Z" fill="#626C84"/>
<path d="M372.554 324.698H364.554C364.002 324.698 363.554 325.146 363.554 325.698V329.823C363.554 330.375 364.002 330.823 364.554 330.823H372.554C373.106 330.823 373.554 330.375 373.554 329.823V325.698C373.554 325.146 373.106 324.698 372.554 324.698Z" fill="#626C84"/>
<path d="M372.554 316.823H364.554C364.002 316.823 363.554 317.271 363.554 317.823V321.948C363.554 322.5 364.002 322.948 364.554 322.948H372.554C373.106 322.948 373.554 322.5 373.554 321.948V317.823C373.554 317.271 373.106 316.823 372.554 316.823Z" fill="#626C84"/>
<path d="M386.554 324.698H378.554C378.002 324.698 377.554 325.146 377.554 325.698V329.823C377.554 330.375 378.002 330.823 378.554 330.823H386.554C387.106 330.823 387.554 330.375 387.554 329.823V325.698C387.554 325.146 387.106 324.698 386.554 324.698Z" fill="#626C84"/>
<path d="M358.554 324.698H350.554C350.002 324.698 349.554 325.146 349.554 325.698V329.823C349.554 330.375 350.002 330.823 350.554 330.823H358.554C359.106 330.823 359.554 330.375 359.554 329.823V325.698C359.554 325.146 359.106 324.698 358.554 324.698Z" fill="#626C84"/>
<path d="M209.085 296.904H177.446C176.894 296.904 176.446 297.352 176.446 297.904V309.904C176.446 310.456 176.894 310.904 177.446 310.904H209.085C209.637 310.904 210.085 310.456 210.085 309.904V297.904C210.085 297.352 209.637 296.904 209.085 296.904Z" fill="#626C84"/>
<path d="M230.904 296.904H218.904C218.352 296.904 217.904 297.352 217.904 297.904V309.904C217.904 310.456 218.352 310.904 218.904 310.904H230.904C231.456 310.904 231.904 310.456 231.904 309.904V297.904C231.904 297.352 231.456 296.904 230.904 296.904Z" fill="#626C84"/>
<path d="M252.542 296.904H240.542C239.99 296.904 239.542 297.352 239.542 297.904V309.904C239.542 310.456 239.99 310.904 240.542 310.904H252.542C253.094 310.904 253.542 310.456 253.542 309.904V297.904C253.542 297.352 253.094 296.904 252.542 296.904Z" fill="#626C84"/>
<path d="M274.181 296.904H262.181C261.629 296.904 261.181 297.352 261.181 297.904V309.904C261.181 310.456 261.629 310.904 262.181 310.904H274.181C274.733 310.904 275.181 310.456 275.181 309.904V297.904C275.181 297.352 274.733 296.904 274.181 296.904Z" fill="#626C84"/>
<path d="M295.819 296.904H283.819C283.267 296.904 282.819 297.352 282.819 297.904V309.904C282.819 310.456 283.267 310.904 283.819 310.904H295.819C296.371 310.904 296.819 310.456 296.819 309.904V297.904C296.819 297.352 296.371 296.904 295.819 296.904Z" fill="#626C84"/>
<path d="M317.458 296.904H305.458C304.906 296.904 304.458 297.352 304.458 297.904V309.904C304.458 310.456 304.906 310.904 305.458 310.904H317.458C318.01 310.904 318.458 310.456 318.458 309.904V297.904C318.458 297.352 318.01 296.904 317.458 296.904Z" fill="#626C84"/>
<path d="M339.096 296.904H327.096C326.544 296.904 326.096 297.352 326.096 297.904V309.904C326.096 310.456 326.544 310.904 327.096 310.904H339.096C339.648 310.904 340.096 310.456 340.096 309.904V297.904C340.096 297.352 339.648 296.904 339.096 296.904Z" fill="#626C84"/>
<path d="M386.554 296.904H350.554C350.002 296.904 349.554 297.352 349.554 297.904V309.904C349.554 310.456 350.002 310.904 350.554 310.904H386.554C387.106 310.904 387.554 310.456 387.554 309.904V297.904C387.554 297.352 387.106 296.904 386.554 296.904Z" fill="#626C84"/>
<path d="M223.084 276.424H211.084C210.532 276.424 210.084 276.872 210.084 277.424V289.424C210.084 289.976 210.532 290.424 211.084 290.424H223.084C223.636 290.424 224.084 289.976 224.084 289.424V277.424C224.084 276.872 223.636 276.424 223.084 276.424Z" fill="#626C84"/>
<path d="M201.446 276.424H177.446C176.894 276.424 176.446 276.872 176.446 277.424V289.424C176.446 289.976 176.894 290.424 177.446 290.424H201.446C201.998 290.424 202.446 289.976 202.446 289.424V277.424C202.446 276.872 201.998 276.424 201.446 276.424Z" fill="#626C84"/>
<path d="M244.723 276.424H232.723C232.171 276.424 231.723 276.872 231.723 277.424V289.424C231.723 289.976 232.171 290.424 232.723 290.424H244.723C245.275 290.424 245.723 289.976 245.723 289.424V277.424C245.723 276.872 245.275 276.424 244.723 276.424Z" fill="#626C84"/>
<path d="M266.361 276.424H254.361C253.809 276.424 253.361 276.872 253.361 277.424V289.424C253.361 289.976 253.809 290.424 254.361 290.424H266.361C266.913 290.424 267.361 289.976 267.361 289.424V277.424C267.361 276.872 266.913 276.424 266.361 276.424Z" fill="#626C84"/>
<path d="M288 276.424H276C275.448 276.424 275 276.872 275 277.424V289.424C275 289.976 275.448 290.424 276 290.424H288C288.552 290.424 289 289.976 289 289.424V277.424C289 276.872 288.552 276.424 288 276.424Z" fill="#626C84"/>
<path d="M309.639 276.424H297.639C297.087 276.424 296.639 276.872 296.639 277.424V289.424C296.639 289.976 297.087 290.424 297.639 290.424H309.639C310.191 290.424 310.639 289.976 310.639 289.424V277.424C310.639 276.872 310.191 276.424 309.639 276.424Z" fill="#626C84"/>
<path d="M331.277 276.424H319.277C318.725 276.424 318.277 276.872 318.277 277.424V289.424C318.277 289.976 318.725 290.424 319.277 290.424H331.277C331.829 290.424 332.277 289.976 332.277 289.424V277.424C332.277 276.872 331.829 276.424 331.277 276.424Z" fill="#626C84"/>
<path d="M352.916 276.424H340.916C340.364 276.424 339.916 276.872 339.916 277.424V289.424C339.916 289.976 340.364 290.424 340.916 290.424H352.916C353.468 290.424 353.916 289.976 353.916 289.424V277.424C353.916 276.872 353.468 276.424 352.916 276.424Z" fill="#626C84"/>
<path d="M386.554 276.424H362.554C362.002 276.424 361.554 276.872 361.554 277.424V289.424C361.554 289.976 362.002 290.424 362.554 290.424H386.554C387.106 290.424 387.554 289.976 387.554 289.424V277.424C387.554 276.872 387.106 276.424 386.554 276.424Z" fill="#626C84"/>
<path d="M211.347 256.823H199.347C198.795 256.823 198.347 257.271 198.347 257.823V269.823C198.347 270.375 198.795 270.823 199.347 270.823H211.347C211.899 270.823 212.347 270.375 212.347 269.823V257.823C212.347 257.271 211.899 256.823 211.347 256.823Z" fill="#626C84"/>
<path d="M189.446 256.823H177.446C176.894 256.823 176.446 257.271 176.446 257.823V269.823C176.446 270.375 176.894 270.823 177.446 270.823H189.446C189.998 270.823 190.446 270.375 190.446 269.823V257.823C190.446 257.271 189.998 256.823 189.446 256.823Z" fill="#626C84"/>
<path d="M233.248 256.823H221.248C220.696 256.823 220.248 257.271 220.248 257.823V269.823C220.248 270.375 220.696 270.823 221.248 270.823H233.248C233.8 270.823 234.248 270.375 234.248 269.823V257.823C234.248 257.271 233.8 256.823 233.248 256.823Z" fill="#626C84"/>
<path d="M255.149 256.823H243.149C242.597 256.823 242.149 257.271 242.149 257.823V269.823C242.149 270.375 242.597 270.823 243.149 270.823H255.149C255.701 270.823 256.149 270.375 256.149 269.823V257.823C256.149 257.271 255.701 256.823 255.149 256.823Z" fill="#626C84"/>
<path d="M277.05 256.823H265.05C264.498 256.823 264.05 257.271 264.05 257.823V269.823C264.05 270.375 264.498 270.823 265.05 270.823H277.05C277.602 270.823 278.05 270.375 278.05 269.823V257.823C278.05 257.271 277.602 256.823 277.05 256.823Z" fill="#626C84"/>
<path d="M298.95 256.823H286.95C286.398 256.823 285.95 257.271 285.95 257.823V269.823C285.95 270.375 286.398 270.823 286.95 270.823H298.95C299.502 270.823 299.95 270.375 299.95 269.823V257.823C299.95 257.271 299.502 256.823 298.95 256.823Z" fill="#626C84"/>
<path d="M320.851 256.823H308.851C308.299 256.823 307.851 257.271 307.851 257.823V269.823C307.851 270.375 308.299 270.823 308.851 270.823H320.851C321.403 270.823 321.851 270.375 321.851 269.823V257.823C321.851 257.271 321.403 256.823 320.851 256.823Z" fill="#626C84"/>
<path d="M342.752 256.823H330.752C330.2 256.823 329.752 257.271 329.752 257.823V269.823C329.752 270.375 330.2 270.823 330.752 270.823H342.752C343.304 270.823 343.752 270.375 343.752 269.823V257.823C343.752 257.271 343.304 256.823 342.752 256.823Z" fill="#626C84"/>
<path d="M364.653 256.823H352.653C352.101 256.823 351.653 257.271 351.653 257.823V269.823C351.653 270.375 352.101 270.823 352.653 270.823H364.653C365.205 270.823 365.653 270.375 365.653 269.823V257.823C365.653 257.271 365.205 256.823 364.653 256.823Z" fill="#626C84"/>
<path d="M386.554 256.823H374.554C374.002 256.823 373.554 257.271 373.554 257.823V269.823C373.554 270.375 374.002 270.823 374.554 270.823H386.554C387.106 270.823 387.554 270.375 387.554 269.823V257.823C387.554 257.271 387.106 256.823 386.554 256.823Z" fill="#626C84"/>
<path fill-rule="evenodd" clip-rule="evenodd" d="M197 224.92H367V238.366C367 240.575 365.209 242.366 363 242.366H201C198.791 242.366 197 240.575 197 238.366V224.92Z" fill="#626C84"/>
<path opacity="0.12" fill-rule="evenodd" clip-rule="evenodd" d="M197 224.92H367V226.92H197V224.92Z" fill="white"/>
<path opacity="0.25" fill-rule="evenodd" clip-rule="evenodd" d="M363 238.365H201C198.791 238.365 197 236.574 197 234.365V238.365C197 240.574 198.791 242.365 201 242.365H363C365.209 242.365 367 240.574 367 238.365V234.365C367 236.574 365.209 238.365 363 238.365Z" fill="#626C84"/>
<path fill-rule="evenodd" clip-rule="evenodd" d="M197 224.92H367V238.366C367 240.575 365.209 242.366 363 242.366H201C198.791 242.366 197 240.575 197 238.366V224.92Z" stroke="#46505C" stroke-width="2"/>
<path d="M317 344.323H247C245.895 344.323 245 345.218 245 346.323V393.323C245 394.428 245.895 395.323 247 395.323H317C318.105 395.323 319 394.428 319 393.323V346.323C319 345.218 318.105 344.323 317 344.323Z" fill="#E6F3FF"/>
<path d="M317 344.323H247C245.895 344.323 245 345.218 245 346.323V393.323C245 394.428 245.895 395.323 247 395.323H317C318.105 395.323 319 394.428 319 393.323V346.323C319 345.218 318.105 344.323 317 344.323Z" stroke="#626C84"/>
<path opacity="0.52" d="M282 83.052C283.657 83.052 285 81.7089 285 80.052C285 78.3951 283.657 77.052 282 77.052C280.343 77.052 279 78.3951 279 80.052C279 81.7089 280.343 83.052 282 83.052Z" fill="white"/>
<path d="M282 83.052C283.657 83.052 285 81.7089 285 80.052C285 78.3951 283.657 77.052 282 77.052C280.343 77.052 279 78.3951 279 80.052C279 81.7089 280.343 83.052 282 83.052Z" stroke="#46505C"/>
<path d="M344.36 101.129H332.36C331.808 101.129 331.36 101.577 331.36 102.129C331.36 102.681 331.808 103.129 332.36 103.129H344.36C344.912 103.129 345.36 102.681 345.36 102.129C345.36 101.577 344.912 101.129 344.36 101.129Z" fill="white"/>
<path d="M370.334 101.129H358.334C357.782 101.129 357.334 101.577 357.334 102.129C357.334 102.681 357.782 103.129 358.334 103.129H370.334C370.886 103.129 371.334 102.681 371.334 102.129C371.334 101.577 370.886 101.129 370.334 101.129Z" fill="white"/>
<path d="M318.387 101.129H306.387C305.835 101.129 305.387 101.577 305.387 102.129C305.387 102.681 305.835 103.129 306.387 103.129H318.387C318.939 103.129 319.387 102.681 319.387 102.129C319.387 101.577 318.939 101.129 318.387 101.129Z" fill="white"/>
<path d="M189.233 107.487C191.904 107.487 194.07 105.321 194.07 102.65C194.07 99.9786 191.904 97.813 189.233 97.813C186.562 97.813 184.396 99.9786 184.396 102.65C184.396 105.321 186.562 107.487 189.233 107.487Z" fill="white"/>
<g opacity="0.72">
<g opacity="0.72">
<path opacity="0.72" fill-rule="evenodd" clip-rule="evenodd" d="M231.324 155.611H332.558V159.256H231.324V155.611Z" fill="white"/>
<path opacity="0.72" fill-rule="evenodd" clip-rule="evenodd" d="M244.127 143.513H319.756V147.211H244.127V143.513Z" fill="white"/>
</g>
</g>
<path d="M299.405 183.945H270.594C267.567 183.945 265.113 186.399 265.113 189.426C265.113 192.453 267.567 194.907 270.594 194.907H299.405C302.432 194.907 304.886 192.453 304.886 189.426C304.886 186.399 302.432 183.945 299.405 183.945Z" stroke="white"/>
</g>
</g>
<defs>
<clipPath id="clip0">
<rect width="555" height="482" fill="white"/>
</clipPath>
</defs>
</svg>
