<?xml version="1.0" encoding="UTF-8"?>
<svg width="651px" height="644px" viewBox="0 0 651 644" version="1.1" xmlns="http://www.w3.org/2000/svg" xmlns:xlink="http://www.w3.org/1999/xlink">
    <!-- Generator: Sketch 41 (35326) - http://www.bohemiancoding.com/sketch -->
    <title>map</title>
    <desc>Created with Sketch.</desc>
    <defs>
        <rect id="path-1" x="0.6" y="0" width="805.102" height="702"></rect>
    </defs>
    <g id="Page-1" stroke="none" stroke-width="1" fill="none" fill-rule="evenodd">
        <g id="map" transform="translate(-63.000000, -58.000000)">
            <mask id="mask-2" fill="white">
                <use xlink:href="#path-1"></use>
            </mask>
            <g id="Rectangle-path"></g>
            <path d="M693.432,576.59 L555.74,663.421 C541.483584,672.411723 523.977193,674.62634 507.931,669.469 L357,620.953 C340.850043,615.762355 323.226868,618.040772 308.928,627.168 L198.428,697.705 C191.554368,702.048018 183.035907,702.89762 175.439895,699.997753 C167.843882,697.097887 162.058747,690.787721 159.828,682.969 L64.458,348.629 C61.3176296,337.617525 65.8085927,325.853482 75.488,319.736 L214.648,231.787 C230.266428,221.915915 249.457894,219.478526 267.048,225.132 L413.163,272.1 C430.81827,277.774906 450.083293,275.298152 465.729,265.342 L570.367,198.753 C577.239301,194.380149 585.77272,193.508511 593.387197,196.401622 C601.001674,199.294733 606.803312,205.61296 609.038,213.446 L704.393,547.74 C707.525799,558.72264 703.067075,570.458266 693.432,576.59 Z" id="Shape" fill="#CCCDCF" opacity="0.4" mask="url(#mask-2)"></path>
            <path d="M698.808,541.107 L581.23,615.929 C565.584293,625.885152 546.31927,628.361906 528.664,622.687 L382.539,575.719 C364.949001,570.065654 345.757727,572.502653 330.139,582.373 L203.8,662.222 C196.926368,666.565018 188.407907,667.41462 180.811895,664.514753 C173.215882,661.614887 167.430747,655.304721 165.2,647.486 L69.831,313.146 C66.6900876,302.134736 71.1806988,290.370548 80.86,284.253 L220.013,196.3 C235.631679,186.429519 254.823014,183.992513 272.413,189.646 L418.537,236.615 C436.192378,242.290038 455.457595,239.812893 471.103,229.856 L575.741,163.268 C582.613301,158.895149 591.14672,158.023511 598.761197,160.916622 C606.375674,163.809733 612.177312,170.12796 614.412,177.961 L709.767,512.253 C712.90181,523.236407 708.44378,534.973974 698.808,541.107 L698.808,541.107 Z" id="Shape" fill="#FFFFFF" mask="url(#mask-2)"></path>
            <path d="M368.513,537.926 L346.65,476.24 L243.331,511.611 L211.024,418.005 L126.873,434.753 L185.873,641.587 C186.408941,643.450856 188.117637,644.731969 190.057,644.724 C190.857613,644.720868 191.639915,644.484196 192.308,644.043 L312.422,568.13 C311.9,567.519 368.513,537.926 368.513,537.926 Z" id="Shape" fill="#EAF4F7" mask="url(#mask-2)"></path>
            <path d="M698.808,541.107 L581.23,615.929 C565.584293,625.885152 546.31927,628.361906 528.664,622.687 L382.539,575.719 C364.949001,570.065654 345.757727,572.502653 330.139,582.373 L203.8,662.222 C196.926368,666.565018 188.407907,667.41462 180.811895,664.514753 C173.215882,661.614887 167.430747,655.304721 165.2,647.486 L69.831,313.146 C66.6900876,302.134736 71.1806988,290.370548 80.86,284.253 L220.013,196.3 C235.631679,186.429519 254.823014,183.992513 272.413,189.646 L418.537,236.615 C436.192378,242.290038 455.457595,239.812893 471.103,229.856 L575.741,163.268 C582.613301,158.895149 591.14672,158.023511 598.761197,160.916622 C606.375674,163.809733 612.177312,170.12796 614.412,177.961 L709.767,512.253 C712.90181,523.236407 708.44378,534.973974 698.808,541.107 L698.808,541.107 Z" id="Shape" stroke="#363A5A" stroke-width="6" mask="url(#mask-2)"></path>
            <path d="M260.066,499.575 C260.066,499.575 261.858,499.108 264.878,498.226" id="Shape" stroke="#363A5A" stroke-width="4" mask="url(#mask-2)"></path>
            <path d="M279.416,493.572 C300.65,486.185 331.81,472.629 332.184,456.597 C332.684,435.297 229.452,328.731 284.951,322.289 C470.239,300.783 387.218,454.889 471.723,451.445 C507.423,449.99 441.402,400.906 543.405,365.427 C558.526,360.167 551.014,321.711 545.941,301.605" id="Shape" stroke="#363A5A" stroke-width="4" stroke-dasharray="10.17613792419434,15.2642068862915" mask="url(#mask-2)"></path>
            <path d="M543.979,294.226 C543.135,291.209 542.579,289.426 542.579,289.426" id="Shape" stroke="#363A5A" stroke-width="4" mask="url(#mask-2)"></path>
            <circle id="Oval" fill="#3DC0CB" opacity="0.22" mask="url(#mask-2)" cx="253.612" cy="502.178" r="48.192"></circle>
            <circle id="Oval" fill="#3DC0CB" mask="url(#mask-2)" cx="253.612" cy="502.178" r="27.946"></circle>
            <path d="M253.612,474.232 C244.928474,474.226721 236.737567,478.264877 231.454,485.156 C242.802548,477.442406 258.072612,479.110666 267.487904,489.092716 C276.903197,499.074767 277.67704,514.416185 269.314,525.295 C279.463355,518.400723 283.928781,505.692743 280.32295,493.965064 C276.717119,482.237386 265.883493,474.233303 253.614,474.232 L253.612,474.232 Z" id="Shape" fill="#64C7CF" mask="url(#mask-2)"></path>
            <circle id="Oval" stroke="#363A5A" stroke-width="6" mask="url(#mask-2)" cx="253.612" cy="502.178" r="27.946"></circle>
            <path d="M266.347,252.84 L346.5,268.033 L328.093,235.681 L261.754,212.536 C254.004958,209.832854 245.499417,210.319193 238.109,213.888 L92.342,302.431 C90.7347075,303.455687 89.987755,305.411817 90.503,307.247 L114.011,389.659 L178.1,373.812 L166.33,326.6 L266.347,252.84 Z" id="Shape" stroke="#259AD6" stroke-width="4" fill="#87D5F7" mask="url(#mask-2)"></path>
            <polygon id="Shape" stroke="#ECB072" stroke-width="4" fill="#FDDCBF" mask="url(#mask-2)" points="393.37 456.929 439.109 468.445 461.222 519.126 411.949 511.049"></polygon>
            <path d="M543.426,305.11 C506.269,305.11 476.148,294.334 476.148,281.041 C476.148,267.748 506.269,256.971 543.426,256.971 C580.583,256.971 610.703,267.748 610.703,281.041 C610.703,294.334 580.582,305.11 543.426,305.11 Z" id="Shape" fill="#EAF4F7" mask="url(#mask-2)"></path>
            <polygon id="Shape" stroke="#ECB072" stroke-width="4" fill="#FDDCBF" mask="url(#mask-2)" points="564.538 441.486 648.465 404.952 681.62 505.961 545.718 583.193 520.808 512.893 573.948 483.002"></polygon>
            <path d="M642.481,163.681 C642.481,105.881 595.567,59.337 538.72,62.039 C487.82,64.459 444.428,107.821 444.428,160.163 C444.428,235.88 543.428,294.263 543.428,294.263 C543.428,294.263 642.481,235.88 642.481,163.681 Z" id="Shape" fill="#EE4637" mask="url(#mask-2)"></path>
            <path d="M579.585,264.964 C563.518607,277.497802 540.964699,277.420144 524.985,264.776 C495.685,241.576 453.308,199.453 453.308,149.916 C453.381014,128.883152 460.338021,108.452564 473.116,91.746 C455.543,109.492 444.427,133.676 444.427,160.163 C444.427,235.88 543.427,294.263 543.427,294.263 C543.427,294.263 583.801,270.463 612.998,234.463 C602.692269,245.50551 591.518899,255.705103 579.585,264.964 Z" id="Shape" fill="#CD3C27" mask="url(#mask-2)"></path>
            <path d="M538.72,62.039 C520.872885,62.9585317 503.617095,68.741469 488.82,78.762 C500.472394,73.1428374 513.133361,69.9175789 526.054,69.277 C582.901,66.577 629.816,113.118 629.816,170.919 C629.816,227.529 568.922,275.643 542.624,293.782 C543.139,294.096 543.424,294.266 543.424,294.266 C543.424,294.266 642.479,235.88 642.479,163.681 C642.481,105.881 595.567,59.337 538.72,62.039 Z" id="Shape" fill="#F07378" mask="url(#mask-2)"></path>
            <path d="M543.426,202.605 C526.941646,202.605404 512.080222,192.67578 505.771653,177.446339 C499.463083,162.216897 502.949747,144.686851 514.605802,133.03051 C526.261858,121.374168 543.791819,117.887074 559.021415,124.19527 C574.251011,130.503466 584.181,145.364646 584.181,161.849 C584.181,184.357527 565.934527,202.604448 543.426,202.605 Z" id="Shape" fill="#FFFFFF" mask="url(#mask-2)"></path>
            <path d="M543.426,202.605 C526.941646,202.605404 512.080222,192.67578 505.771653,177.446339 C499.463083,162.216897 502.949747,144.686851 514.605802,133.03051 C526.261858,121.374168 543.791819,117.887074 559.021415,124.19527 C574.251011,130.503466 584.181,145.364646 584.181,161.849 C584.181,184.357527 565.934527,202.604448 543.426,202.605 Z" id="Shape" stroke="#363A5A" stroke-width="6" mask="url(#mask-2)"></path>
            <path d="M642.481,163.681 C642.481,105.881 595.567,59.337 538.72,62.039 C487.82,64.459 444.428,107.821 444.428,160.163 C444.428,235.88 543.428,294.263 543.428,294.263 C543.428,294.263 642.481,235.88 642.481,163.681 Z" id="Shape" stroke="#363A5A" stroke-width="6" mask="url(#mask-2)"></path>
        </g>
    </g>
</svg>