<svg width="630" height="630" viewBox="0 0 630 630" fill="none" xmlns="http://www.w3.org/2000/svg">
<path opacity="0.4" d="M499.862 417.432L413.116 472.135C408.679 474.933 403.683 476.725 398.479 477.383C393.275 478.041 387.99 477.55 382.997 475.945L287.91 445.38C282.885 443.765 277.565 443.279 272.33 443.956C267.095 444.632 262.074 446.456 257.625 449.296L188.01 493.734C185.874 495.084 183.453 495.917 180.939 496.167C178.425 496.418 175.887 496.08 173.527 495.179C171.167 494.278 169.049 492.839 167.342 490.977C165.635 489.114 164.385 486.88 163.692 484.45L103.609 273.816C102.645 270.439 102.802 266.84 104.054 263.559C105.307 260.278 107.588 257.49 110.557 255.614L198.228 200.206C203.089 197.134 208.564 195.166 214.268 194.442C219.973 193.717 225.766 194.254 231.24 196.013L323.293 225.603C328.787 227.369 334.602 227.903 340.326 227.167C346.049 226.431 351.541 224.444 356.409 221.345L422.331 179.394C424.466 178.036 426.889 177.194 429.407 176.937C431.925 176.68 434.468 177.014 436.834 177.913C439.2 178.812 441.323 180.251 443.035 182.115C444.747 183.979 446 186.217 446.694 188.651L506.768 399.256C507.729 402.625 507.576 406.215 506.331 409.49C505.087 412.765 502.818 415.551 499.862 417.432V417.432Z" fill="#CCCDCF"/>
<path d="M503.249 395.077L429.175 442.215C424.306 445.313 418.815 447.301 413.091 448.037C407.368 448.773 401.552 448.239 396.058 446.473L304 416.883C298.525 415.124 292.732 414.587 287.028 415.311C281.324 416.036 275.848 418.003 270.988 421.075L191.394 471.38C189.258 472.729 186.837 473.562 184.323 473.813C181.809 474.064 179.272 473.725 176.911 472.824C174.551 471.923 172.433 470.484 170.726 468.622C169.019 466.76 167.769 464.526 167.076 462.096L106.994 251.462C106.03 248.084 106.186 244.486 107.439 241.205C108.691 237.923 110.973 235.136 113.942 233.259L201.608 177.849C206.469 174.777 211.944 172.81 217.648 172.085C223.353 171.361 229.146 171.898 234.62 173.657L326.678 203.247C332.172 205.013 337.988 205.547 343.711 204.811C349.435 204.075 354.926 202.088 359.795 198.989L425.717 157.039C427.852 155.68 430.275 154.839 432.793 154.582C435.311 154.324 437.854 154.659 440.22 155.557C442.585 156.456 444.709 157.895 446.421 159.759C448.132 161.624 449.385 163.862 450.08 166.295L510.153 376.899C511.115 380.269 510.962 383.859 509.718 387.134C508.474 390.41 506.205 393.196 503.249 395.077V395.077Z" fill="white"/>
<path d="M295.163 393.073L281.39 354.211L216.299 376.495L195.945 317.523L142.93 328.074L180.1 458.38C180.264 458.951 180.611 459.453 181.086 459.81C181.562 460.167 182.141 460.359 182.736 460.356C183.24 460.354 183.733 460.205 184.154 459.927L259.826 412.102C259.497 411.717 295.163 393.073 295.163 393.073Z" fill="#EAF4F7"/>
<path d="M503.249 395.077L429.175 442.215C424.306 445.313 418.815 447.301 413.091 448.037C407.368 448.773 401.552 448.239 396.058 446.473L304 416.883C298.525 415.124 292.732 414.587 287.028 415.311C281.324 416.036 275.848 418.003 270.988 421.075L191.394 471.38C189.258 472.729 186.837 473.562 184.323 473.813C181.809 474.064 179.272 473.725 176.911 472.824C174.551 471.923 172.433 470.484 170.726 468.622C169.019 466.76 167.769 464.526 167.076 462.096L106.994 251.462C106.03 248.084 106.186 244.486 107.439 241.205C108.691 237.923 110.973 235.136 113.942 233.259L201.608 177.849C206.469 174.777 211.944 172.81 217.648 172.085C223.353 171.361 229.146 171.898 234.62 173.657L326.678 203.247C332.172 205.013 337.988 205.547 343.711 204.811C349.435 204.075 354.926 202.088 359.795 198.989L425.717 157.039C427.852 155.68 430.275 154.839 432.793 154.582C435.311 154.324 437.854 154.659 440.22 155.557C442.585 156.456 444.709 157.895 446.421 159.759C448.132 161.624 449.385 163.862 450.08 166.295L510.153 376.899C511.115 380.269 510.962 383.859 509.718 387.134C508.474 390.41 506.205 393.196 503.249 395.077V395.077Z" stroke="#363A5A" stroke-width="6" stroke-miterlimit="10"/>
<path d="M226.842 368.912C226.842 368.912 227.971 368.618 229.873 368.062" stroke="#363A5A" stroke-width="4" stroke-linecap="round" stroke-linejoin="round"/>
<path d="M239.032 365.13C252.409 360.477 272.04 351.936 272.276 341.836C272.591 328.417 207.555 261.281 242.519 257.222C359.251 243.673 306.947 340.76 360.186 338.59C382.677 337.674 341.083 306.751 405.345 284.399C414.871 281.085 410.139 256.858 406.943 244.191" stroke="#363A5A" stroke-width="4" stroke-linecap="round" stroke-linejoin="round" stroke-dasharray="10.18 15.26"/>
<path d="M405.707 239.542C405.175 237.642 404.825 236.518 404.825 236.518" stroke="#363A5A" stroke-width="4" stroke-linecap="round" stroke-linejoin="round"/>
<path opacity="0.22" d="M222.776 400.913C239.543 400.913 253.137 387.32 253.137 370.552C253.137 353.784 239.543 340.191 222.776 340.191C206.008 340.191 192.415 353.784 192.415 370.552C192.415 387.32 206.008 400.913 222.776 400.913Z" fill="#3DC0CB"/>
<path d="M222.776 388.158C232.499 388.158 240.382 380.276 240.382 370.552C240.382 360.829 232.499 352.946 222.776 352.946C213.052 352.946 205.17 360.829 205.17 370.552C205.17 380.276 213.052 388.158 222.776 388.158Z" fill="#3DC0CB"/>
<path d="M222.776 352.946C220.077 352.944 217.413 353.564 214.993 354.758C212.572 355.951 210.458 357.686 208.816 359.828C212.277 357.476 216.463 356.433 220.623 356.888C224.784 357.342 228.646 359.264 231.517 362.308C234.389 365.353 236.082 369.321 236.293 373.5C236.504 377.68 235.218 381.798 232.668 385.116C235.783 383 238.137 379.941 239.385 376.389C240.634 372.836 240.71 368.977 239.603 365.378C238.497 361.779 236.265 358.629 233.237 356.392C230.208 354.154 226.542 352.947 222.777 352.946H222.776Z" fill="#64C7CF"/>
<path d="M222.776 388.158C232.499 388.158 240.382 380.276 240.382 370.552C240.382 360.829 232.499 352.946 222.776 352.946C213.052 352.946 205.17 360.829 205.17 370.552C205.17 380.276 213.052 388.158 222.776 388.158Z" stroke="#363A5A" stroke-width="6" stroke-miterlimit="10"/>
<path d="M230.799 213.469L281.295 223.041L269.699 202.659L227.905 188.078C225.488 187.234 222.928 186.876 220.372 187.022C217.816 187.168 215.314 187.816 213.009 188.929L121.175 244.712C120.682 245.026 120.303 245.491 120.095 246.037C119.886 246.583 119.859 247.183 120.017 247.746L134.827 299.665L175.203 289.682L167.788 259.938L230.799 213.469Z" fill="#87D5F7" stroke="#259AD6" stroke-width="4" stroke-linecap="round" stroke-linejoin="round"/>
<path d="M310.823 342.045L339.639 349.3L353.57 381.229L322.528 376.141L310.823 342.045Z" fill="#FDDCBF" stroke="#ECB072" stroke-width="4" stroke-linecap="round" stroke-linejoin="round"/>
<path d="M405.358 246.399C381.949 246.399 362.973 239.61 362.973 231.236C362.973 222.861 381.949 216.072 405.358 216.072C428.767 216.072 447.743 222.861 447.743 231.236C447.743 239.61 428.767 246.399 405.358 246.399Z" fill="#EAF4F7"/>
<path d="M418.659 332.316L471.533 309.3L492.421 372.935L406.802 421.592L391.109 377.303L424.587 358.471L418.659 332.316Z" fill="#FDDCBF" stroke="#ECB072" stroke-width="4" stroke-linecap="round" stroke-linejoin="round"/>
<path d="M467.763 157.299C467.763 120.885 438.207 91.5623 402.394 93.2646C370.327 94.7892 342.99 122.107 342.99 155.083C342.99 202.784 405.36 239.566 405.36 239.566C405.36 239.566 467.763 202.784 467.763 157.299Z" fill="#F65F34"/>
<path d="M428.139 221.107C423.221 224.944 417.157 227.018 410.919 226.996C404.682 226.975 398.632 224.859 393.741 220.989C375.282 206.373 348.584 179.835 348.584 148.627C348.63 135.376 353.013 122.505 361.063 111.98C349.992 123.16 342.989 138.396 342.989 155.083C342.989 202.784 405.359 239.566 405.359 239.566C405.359 239.566 430.795 224.572 449.189 201.892C442.696 208.848 435.657 215.274 428.139 221.107Z" fill="#FD6B41"/>
<path d="M402.394 93.2646C391.15 93.8439 380.279 97.4871 370.957 103.8C378.298 100.26 386.274 98.2281 394.414 97.8245C430.228 96.1235 459.784 125.444 459.784 161.859C459.784 197.523 421.421 227.835 404.853 239.263C405.178 239.46 405.357 239.568 405.357 239.568C405.357 239.568 467.762 202.784 467.762 157.299C467.763 120.885 438.207 91.5623 402.394 93.2646Z" fill="#FF7852"/>
<path d="M405.358 181.821C400.28 181.821 395.316 180.315 391.093 177.494C386.871 174.673 383.58 170.663 381.636 165.971C379.693 161.279 379.184 156.117 380.175 151.136C381.165 146.155 383.611 141.58 387.202 137.989C390.792 134.398 395.368 131.953 400.348 130.962C405.329 129.971 410.492 130.48 415.183 132.423C419.875 134.366 423.885 137.657 426.707 141.88C429.528 146.102 431.034 151.067 431.034 156.145C431.034 162.955 428.329 169.485 423.514 174.301C418.699 179.116 412.168 181.821 405.358 181.821Z" fill="white"/>
<path d="M405.358 181.821C400.28 181.821 395.316 180.315 391.093 177.494C386.871 174.673 383.58 170.663 381.636 165.971C379.693 161.279 379.184 156.117 380.175 151.136C381.165 146.155 383.611 141.58 387.202 137.989C390.792 134.398 395.368 131.953 400.348 130.962C405.329 129.971 410.492 130.48 415.183 132.423C419.875 134.366 423.885 137.657 426.707 141.88C429.528 146.102 431.034 151.067 431.034 156.145C431.034 162.955 428.329 169.485 423.514 174.301C418.699 179.116 412.168 181.821 405.358 181.821Z" stroke="#363A5A" stroke-width="6" stroke-miterlimit="10"/>
<path d="M467.763 157.299C467.763 120.885 438.207 91.5623 402.394 93.2646C370.327 94.7892 342.99 122.107 342.99 155.083C342.99 202.784 405.36 239.566 405.36 239.566C405.36 239.566 467.763 202.784 467.763 157.299Z" stroke="#363A5A" stroke-width="6" stroke-linecap="round" stroke-linejoin="round"/>
</svg>
