<?xml version="1.0" encoding="UTF-8"?>
<svg width="608px" height="480px" viewBox="0 0 608 480" version="1.1" xmlns="http://www.w3.org/2000/svg" xmlns:xlink="http://www.w3.org/1999/xlink">
    <!-- Generator: Sketch 41 (35326) - http://www.bohemiancoding.com/sketch -->
    <title>working</title>
    <desc>Created with Sketch.</desc>
    <defs>
        <polygon id="path-1" points="0 0 675 0 675 548 0 548"></polygon>
    </defs>
    <g id="Page-1" stroke="none" stroke-width="1" fill="none" fill-rule="evenodd">
        <g id="working" transform="translate(-28.000000, -37.000000)">
            <mask id="mask-2" fill="white">
                <use xlink:href="#path-1"></use>
            </mask>
            <g id="Shape"></g>
            <ellipse id="Oval" fill="#E5E5E5" mask="url(#mask-2)" cx="332" cy="488.6" rx="303.5" ry="28.4"></ellipse>
            <path d="M452.5,453.9 C461.4,453.9 468.6,446.7 468.6,437.8 L468.6,413.2 C468.6,404.3 461.4,397.1 452.5,397.1 C443.6,397.1 436.4,404.3 436.4,413.2 L436.4,437.8 C436.4,446.7 443.6,453.9 452.5,453.9 Z" id="Shape" stroke="#4D4D61" stroke-width="3" mask="url(#mask-2)"></path>
            <path d="M452.5,453.9 C461.4,453.9 468.6,446.7 468.6,437.8 L468.6,413.2 C468.6,404.3 461.4,397.1 452.5,397.1 C443.6,397.1 436.4,404.3 436.4,413.2 L436.4,437.8 C436.4,446.7 443.6,453.9 452.5,453.9 Z" id="Shape" fill="#4D4D61" mask="url(#mask-2)"></path>
            <path d="M440.9,443.6 L440.9,419 C440.9,410.1 448.1,402.9 457,402.9 C460.9,402.9 464.4,404.3 467.2,406.5 C464.7,400.9 459.1,397 452.5,397 C443.6,397 436.4,404.2 436.4,413.1 L436.4,437.7 C436.4,442.8 438.7,447.3 442.4,450.2 C441.4,448.3 440.9,446 440.9,443.6 Z" id="Shape" fill="#56566D" mask="url(#mask-2)"></path>
            <ellipse id="Oval" fill="#4D4D61" mask="url(#mask-2)" cx="452.3" cy="400.4" rx="8.9" ry="3.2"></ellipse>
            <path d="M452.5,400.4 C455.8,400.4 458.5,397.7 458.5,394.4 L458.5,366.7 C458.5,363.9 456.2,361.6 453.4,361.6 L451.7,361.6 C448.9,361.6 446.6,363.9 446.6,366.7 L446.6,394.4 C446.5,397.7 449.2,400.4 452.5,400.4 L452.5,400.4 Z" id="Shape" fill="#4D4D61" mask="url(#mask-2)"></path>
            <path d="M452.5,400.4 C455.8,400.4 458.5,397.7 458.5,394.4 L458.5,366.6 C458.5,363.8 456.3,361.6 453.5,361.6 L451.6,361.6 C448.8,361.6 446.6,363.8 446.6,366.6 L446.6,394.4 C446.5,397.7 449.2,400.4 452.5,400.4 Z" id="Shape" stroke="#4D4D61" stroke-width="3" mask="url(#mask-2)"></path>
            <path d="M326.5,155.4 L309.4,155.4 C306.2,155.4 303.6,152.8 303.6,149.6 C303.6,146.4 306.2,143.8 309.4,143.8 L316.6,143.8 C322.3,143.8 326.9,139.2 326.9,133.5 C326.9,127.8 322.3,123.2 316.6,123.2 L294,123.2 C293.1,123.2 292.3,122.4 292.3,121.5 C292.3,120.6 293.1,119.8 294,119.8 L296.5,119.8 C297.5,119.8 298.3,119 298.3,118 C298.3,117 297.5,116.2 296.5,116.2 L278.8,116.2 C277.6,116.2 276.6,117.2 276.6,118.4 C276.6,119.6 277.6,120.6 278.8,120.6 L285.7,120.6 C287.7,120.6 289.4,122.3 289.4,124.3 C289.4,126.3 287.7,128 285.7,128 L282.4,128 C277.7,128 273.8,131.8 273.8,136.6 C273.8,141.4 277.6,145.2 282.4,145.2 L289.4,145.2 C291,145.2 292.3,146.5 292.3,148.1 C292.3,149.7 291,151 289.4,151 L286.7,151 C283.6,151 281.1,153.5 281.1,156.6 C281.1,159.7 283.6,162.2 286.7,162.2 L323.2,162.2 C325.2,162.2 326.9,163.9 326.8,165.9 L326.7,168.7 L334,168.7 L334,162.9 C333.8,158.7 330.5,155.4 326.5,155.4 L326.5,155.4 Z M302.8,133.7 C302.8,132.8 303.5,132 304.5,132 L314.4,132 C315.3,132 316.1,132.7 316.1,133.7 C316.1,134.6 315.4,135.4 314.4,135.4 L304.5,135.4 C303.5,135.3 302.8,134.6 302.8,133.7 Z" id="Shape" fill="#E5E5E5" mask="url(#mask-2)"></path>
            <path d="M273.5,115.8 L270.5,115.8 C269.4,115.8 268.5,114.9 268.5,113.8 C268.5,112.7 269.4,111.8 270.5,111.8 L273.5,111.8 C274.6,111.8 275.5,112.7 275.5,113.8 C275.5,114.9 274.6,115.8 273.5,115.8 Z" id="Shape" fill="#E5E5E5" mask="url(#mask-2)"></path>
            <path d="M514.2,340.9 L510,334 C509.1,332.5 509.6,330.5 511.1,329.5 C512.6,328.6 514.6,329.1 515.6,330.6 L519.8,337.5 C520.7,339 520.2,341 518.7,342 C517.1,343 515.1,342.5 514.2,340.9 Z" id="Shape" fill="#4D4D61" mask="url(#mask-2)"></path>
            <path d="M522.2,338.3 L515.4,334 C513.9,333 513.4,331 514.4,329.5 C515.4,328 517.4,327.5 518.9,328.5 L525.7,332.8 C527.2,333.8 527.7,335.8 526.7,337.3 C525.8,338.8 523.8,339.2 522.2,338.3 Z" id="Shape" fill="#4D4D61" mask="url(#mask-2)"></path>
            <path d="M527.7,332.9 L519.7,331.8 C517.9,331.6 516.7,329.9 516.9,328.1 C517.1,326.3 518.8,325.1 520.6,325.3 L528.6,326.4 C530.4,326.6 531.6,328.3 531.4,330.1 C531.1,331.9 529.5,333.1 527.7,332.9 Z" id="Shape" fill="#4D4D61" mask="url(#mask-2)"></path>
            <path d="M530.5,326.3 L522.5,327.4 C520.7,327.7 519.1,326.4 518.8,324.6 C518.5,322.8 519.8,321.2 521.6,320.9 L529.6,319.8 C531.4,319.5 533,320.8 533.3,322.6 C533.5,324.4 532.3,326 530.5,326.3 Z" id="Shape" fill="#4D4D61" mask="url(#mask-2)"></path>
            <path d="M531.7,319.5 L524,321.9 C522.3,322.4 520.5,321.5 519.9,319.7 C519.4,318 520.3,316.2 522.1,315.6 L529.8,313.2 C531.5,312.7 533.3,313.6 533.9,315.4 C534.3,317.2 533.4,319 531.7,319.5 Z" id="Shape" fill="#4D4D61" mask="url(#mask-2)"></path>
            <path d="M531.9,312.5 L524.4,315.4 C522.7,316 520.8,315.2 520.2,313.5 C519.6,311.8 520.4,309.9 522.1,309.3 L529.6,306.4 C531.3,305.8 533.2,306.6 533.8,308.3 C534.4,310 533.6,311.8 531.9,312.5 Z" id="Shape" fill="#4D4D61" mask="url(#mask-2)"></path>
            <path d="M531.7,305.5 L524.5,309.2 C522.9,310 520.9,309.4 520.1,307.8 C519.3,306.2 519.9,304.2 521.5,303.4 L528.7,299.7 C530.3,298.9 532.3,299.5 533.1,301.1 C533.9,302.7 533.3,304.7 531.7,305.5 Z" id="Shape" fill="#4D4D61" mask="url(#mask-2)"></path>
            <path d="M531.1,300.8 L523.9,304.5 C522.3,305.3 520.3,304.7 519.5,303.1 C518.7,301.5 519.3,299.5 520.9,298.7 L528.1,295 C529.7,294.2 531.7,294.8 532.5,296.4 C533.3,298 532.7,300 531.1,300.8 Z" id="Shape" fill="#4D4D61" mask="url(#mask-2)"></path>
            <path d="M339.1,174.8 C331.8,174.8 325.9,180.7 325.9,188 C325.9,195.3 331.8,201.2 339.1,201.2 C346.4,201.2 352.3,195.3 352.3,188 C352.3,180.7 346.4,174.8 339.1,174.8 L339.1,174.8 Z M339.1,196.1 C334.7,196.1 331.1,192.5 331.1,188.1 C331.1,183.7 334.7,180.1 339.1,180.1 C343.5,180.1 347.1,183.7 347.1,188.1 C347.1,192.5 343.5,196.1 339.1,196.1 Z" id="Shape" stroke="#4D4D61" stroke-width="3" mask="url(#mask-2)"></path>
            <path d="M350,181.1 L348.6,181.1 L338.6,181.1 C335.6,181.1 333.6,184.3 335.1,187 C337.2,191 341.5,193.8 346.4,193.8 L347.7,193.8 L347.7,208.8 L361.4,208.8 L361.4,192.4 C361.3,186.2 356.2,181.1 350,181.1 Z" id="Shape" fill="#F7E3CB" mask="url(#mask-2)"></path>
            <path d="M350,181.1 L348.6,181.1 L344.3,181.1 C350.6,181.1 355.7,186.2 355.7,192.5 L355.7,208.9 L361.4,208.9 L361.4,192.5 C361.3,186.2 356.2,181.1 350,181.1 L350,181.1 Z" id="Shape" fill="#EDD6BC" mask="url(#mask-2)"></path>
            <path d="M350,181.1 L348.6,181.1 L337.1,181.1 C335,181.1 333.6,183.1 334.2,185 C335.9,190.1 340.7,193.8 346.3,193.8 L347.6,193.8 L347.6,208.8 L361.3,208.8 L361.3,192.4 C361.3,186.2 356.2,181.1 350,181.1 L350,181.1 Z" id="Shape" stroke="#4D4D61" stroke-width="3" mask="url(#mask-2)"></path>
            <path d="M311.5,206.9 L330.7,206.9 C334.9,206.9 338.4,203.5 338.4,199.2 L338.4,169.3 L303.8,169.3 L303.8,199.2 C303.8,203.4 307.2,206.9 311.5,206.9 L311.5,206.9 Z" id="Shape" fill="#FFD680" mask="url(#mask-2)"></path>
            <path d="M303.8,196.1 L308.3,196.1 C314.5,196.1 319.4,191.1 319.4,185 L319.4,180.7 L321.7,182.5" id="Shape" stroke="#4D4D61" stroke-width="2" mask="url(#mask-2)"></path>
            <path d="M328.3,169.2 L328.3,199.1 C328.3,203.3 324.9,206.8 320.6,206.8 L330.6,206.8 C334.8,206.8 338.3,203.4 338.3,199.1 L338.3,169.2 L328.3,169.2 Z" id="Shape" fill="#EABD6C" mask="url(#mask-2)"></path>
            <path d="M311.5,206.9 L330.7,206.9 C334.9,206.9 338.4,203.5 338.4,199.2 L338.4,169.3 L303.8,169.3 L303.8,199.2 C303.8,203.4 307.2,206.9 311.5,206.9 L311.5,206.9 Z" id="Shape" stroke="#4D4D61" stroke-width="3" mask="url(#mask-2)"></path>
            <polygon id="Shape" fill="#CA4361" mask="url(#mask-2)" points="396.7 209.9 401.7 220.2 409.1 215.1"></polygon>
            <polygon id="Shape" stroke="#4D4D61" stroke-width="2" mask="url(#mask-2)" points="396.7 209.9 401.7 220.2 409.1 215.1"></polygon>
            <polygon id="Shape" fill="#F7E3CB" mask="url(#mask-2)" transform="translate(392.014355, 394.856815) rotate(148.156774) translate(-392.014355, -394.856815) " points="383.964307 340.80649 400.064403 340.80649 400.064403 448.90714 383.964307 448.90714"></polygon>
            <polygon id="Shape" stroke="#4D4D61" stroke-width="3.00001801" mask="url(#mask-2)" transform="translate(392.014355, 394.856815) rotate(148.156774) translate(-392.014355, -394.856815) " points="383.964307 340.80649 400.064403 340.80649 400.064403 448.90714 383.964307 448.90714"></polygon>
            <polygon id="Shape" fill="#F7E3CB" mask="url(#mask-2)" points="207.6 418 313.5 332.8 323.7 345.1 217.8 430.4"></polygon>
            <polygon id="Shape" fill="#EDD6BC" mask="url(#mask-2)" points="219.2 408.7 228.9 421.5 238.5 414 228.8 400.9"></polygon>
            <polygon id="Shape" stroke="#4D4D61" stroke-width="3" mask="url(#mask-2)" points="207.6 418 313.5 332.8 323.7 345.1 217.8 430.4"></polygon>
            <path d="M435.5,209.9 L427.9,201.1 C424.7,197.4 419.1,197 415.4,200.1 C411.6,203.3 411.2,209 414.4,212.7 L422,221.5 C434,235.4 432.5,256.5 418.5,268.5 C404.6,280.5 383.5,279 371.5,265 C366.3,258.9 363.4,251.2 363.4,243.2 L363.4,207 L345.6,207 L345.6,243.3 C345.6,255.6 350,267.4 358,276.7 C376.5,298.1 408.8,300.5 430.2,282 C451.6,263.7 453.9,231.3 435.5,209.9 Z" id="Shape" stroke="#4D4D61" stroke-width="3" mask="url(#mask-2)"></path>
            <path d="M406.8,215.1 C406.8,215.1 418.3,226.6 425.7,237 C433,247.3 438.4,261 438.4,263.7 C442.6,266.4 443.7,267.9 444.4,267.2 C445.1,266.5 445.1,262.5 445.1,259 C445.1,255.4 412.6,211.2 406.8,215.1 L406.8,215.1 Z" id="Shape" fill="#CA4361" mask="url(#mask-2)"></path>
            <path d="M406.8,215.1 C406.8,215.1 418.3,226.6 425.7,237 C433,247.3 438.4,261 438.4,263.7 C442.6,266.4 443.7,267.9 444.4,267.2 C445.1,266.5 445.1,262.5 445.1,259 C445.1,255.4 412.6,211.2 406.8,215.1 L406.8,215.1 Z" id="Shape" stroke="#4D4D61" stroke-width="2" mask="url(#mask-2)"></path>
            <path d="M441.8,447.3 L363.7,471 C362.3,471.4 360.8,470.6 360.3,469.2 L360.2,469 C359.8,467.6 360.6,466.1 362,465.6 L440.1,441.9 C441.5,441.5 443,442.3 443.5,443.7 L443.6,443.9 C444,445.4 443.2,446.9 441.8,447.3 Z" id="Shape" fill="#595D5C" mask="url(#mask-2)"></path>
            <path d="M441.8,447.3 L363.7,471 C362.3,471.4 360.8,470.6 360.3,469.2 L360.2,469 C359.8,467.6 360.6,466.1 362,465.6 L440.1,441.9 C441.5,441.5 443,442.3 443.5,443.7 L443.6,443.9 C444,445.4 443.2,446.9 441.8,447.3 Z" id="Shape" stroke="#4D4D61" stroke-width="3" mask="url(#mask-2)"></path>
            <path d="M429.3,427.2 L429,427.3 C427.3,430.3 423.7,433 419.1,434.4 C415.7,435.4 412.3,435.6 409.5,434.9 C407,434.3 404.4,434.2 401.9,434.9 L371.1,443.5 C367.4,444.5 364.5,447.3 363,451.2 L359.7,459.8 C358.6,462.7 361.1,466 363.8,465.2 L439.4,442.2 L436.2,431.8 C435.2,428.5 432.1,426.5 429.3,427.2 L429.3,427.2 Z" id="Shape" fill="#9B8462" mask="url(#mask-2)"></path>
            <path d="M363,451.3 L362.5,452.7 C365.1,454.7 368.6,455.5 372.1,454.5 L419.3,440.1 C423.8,438.7 426.6,434.7 426.7,430.2 C424.8,432 422.2,433.5 419.2,434.4 C415.8,435.4 412.4,435.6 409.6,434.9 C407.1,434.3 404.5,434.2 402,434.9 L371.2,443.5 C367.4,444.5 364.5,447.3 363,451.3 Z" id="Shape" fill="#E1C885" mask="url(#mask-2)"></path>
            <path d="M429.3,427.2 L429,427.3 C427.3,430.3 423.7,433 419.1,434.4 C415.7,435.4 412.3,435.6 409.5,434.9 C407,434.3 404.4,434.2 401.9,434.9 L371.1,443.5 C367.4,444.5 364.5,447.3 363,451.2 L359.7,459.8 C358.6,462.7 361.1,466 363.8,465.2 L439.4,442.2 L436.2,431.8 C435.2,428.5 432.1,426.5 429.3,427.2 L429.3,427.2 Z" id="Shape" stroke="#4D4D61" stroke-width="3" mask="url(#mask-2)"></path>
            <polygon id="Shape" stroke="#4D4D61" stroke-width="3" mask="url(#mask-2)" points="401.9 443.9 407.2 434.5 403.2 434.6"></polygon>
            <path d="M387,189.2 C429.6,215.8 458.9,258.7 468.7,307.3 L482.5,307.3 C474.7,257.7 446.6,213.5 404.7,185.3" id="Shape" fill="#F7E3CB" mask="url(#mask-2)"></path>
            <path d="M470.1,359.1 L481.2,351.9 L425.1,351.9 L436.2,359.1 C446.6,365.8 459.8,365.8 470.1,359.1 Z" id="Shape" stroke="#4D4D61" stroke-width="3" mask="url(#mask-2)"></path>
            <path d="M470.1,359.1 L481.2,351.9 L425.1,351.9 L436.2,359.1 C446.6,365.8 459.8,365.8 470.1,359.1 Z" id="Shape" fill="#4D4D61" mask="url(#mask-2)"></path>
            <path d="M401.5,186.8 C413,182 421.2,170.6 421.2,157.3 L421.2,146.5 L423.4,146.5 C431,146.5 437.2,140.3 437.2,132.7 C437.2,125.1 431.9,118 424.2,118 L420.5,118.3 L421.1,101.3 C421.1,83.6 406.8,69.3 389.1,69.3 C371.4,69.3 357.1,83.6 357.1,101.3 L357.1,118.8 L347.6,118.8 C344.7,118.8 342.3,121.2 342.3,124.1 C342.3,131.9 348.6,138.3 356.5,138.3 L357.2,138.3 L357.2,157.3 C357.2,174.2 370.4,188.1 387,189.2" id="Shape" fill="#F7E3CB" mask="url(#mask-2)"></path>
            <path d="M503.4,332.6 L395.5,332.6 C395.1,332.6 394.8,332.6 394.4,332.7 C386.1,333.3 379.6,340.6 380.2,349.2 C380.7,356.9 387.1,363.2 394.9,363.6 C398,363.7 400.9,363 403.3,361.6 C413.5,355.7 424.9,352.1 436.8,352.1 L503.4,352.1 C508.7,352.1 513,347.8 513,342.5 C513.1,337 508.7,332.6 503.4,332.6 Z" id="Shape" fill="#CA4361" mask="url(#mask-2)"></path>
            <path d="M396.8,354.5 C396.2,345.9 402.7,338.7 411,338 C411.3,338 411.7,337.9 412.1,337.9 L512.1,337.9 C510.5,334.7 507.3,332.6 503.5,332.6 L395.5,332.6 C395.1,332.6 394.8,332.6 394.4,332.7 C386.1,333.3 379.6,340.6 380.2,349.2 C380.7,356.9 387.1,363.2 394.9,363.6 C396.7,363.7 398.4,363.5 400,363 C398.2,360.5 397,357.6 396.8,354.5 Z" id="Shape" fill="#D35375" mask="url(#mask-2)"></path>
            <path d="M503.4,332.6 L395.5,332.6 C395.1,332.6 394.8,332.6 394.4,332.7 C386.1,333.3 379.6,340.6 380.2,349.2 C380.7,356.9 387.1,363.2 394.9,363.6 C398,363.7 400.9,363 403.3,361.6 C413.5,355.7 424.9,352.1 436.8,352.1 L503.4,352.1 C508.7,352.1 513,347.8 513,342.5 C513.1,337 508.7,332.6 503.4,332.6 Z" id="Shape" stroke="#4D4D61" stroke-width="3" mask="url(#mask-2)"></path>
            <polygon id="Shape" fill="#4D4D61" mask="url(#mask-2)" transform="translate(477.467530, 453.152230) rotate(111.605633) translate(-477.467530, -453.152230) " points="473.76769 437.152923 481.16737 437.152923 481.16737 469.151537 473.76769 469.151537"></polygon>
            <path d="M416.8,462.4 L414.1,455.6 L440.4,445.2 C442.3,444.5 444.4,445.4 445.2,447.3 C445.9,449.2 445,451.3 443.1,452.1 L416.8,462.4 Z" id="Shape" fill="#4D4D61" mask="url(#mask-2)"></path>
            <path d="M436.8,135.5 L432.2,160.1 C430.3,170 421.2,176.8 411.2,175.6 L411.1,175.6 L422.9,125.9 L436.8,135.5 Z" id="Shape" fill="#A3886C" mask="url(#mask-2)"></path>
            <path d="M436.8,135.5 L432.2,160.1 C430.3,170 421.2,176.8 411.2,175.6 L411.1,175.6 L422.9,125.9 L436.8,135.5 Z" id="Shape" stroke="#4D4D61" stroke-width="3" mask="url(#mask-2)"></path>
            <path d="M357.1,140 L357.1,137.7 C357.1,134.5 354.3,132.1 351.2,132.7 L347.5,134 L357.1,140 Z" id="Shape" fill="#EDD6BC" mask="url(#mask-2)"></path>
            <path d="M422.9,118.8 L421.1,118.8 L421.1,101.7 C413.4,113.6 401.4,129.3 401.4,129.3 L401.4,149.7 L401.4,150.8 C401.4,166.5 388.7,179.2 373,179.2 L365.7,179.2 C371.5,185.4 379.8,189.3 389,189.3 C406.7,189.3 421,175 421,157.3 L421,146.5 L423.2,146.5 C431.1,146.5 437.4,139.9 437,132 C436.8,124.5 430.3,118.8 422.9,118.8 Z" id="Shape" fill="#EDD6BC" mask="url(#mask-2)"></path>
            <path d="M404.7,185.3 C414.5,179.8 421.2,169.4 421.2,157.3 L421.2,146.5 L423.4,146.5 C431,146.5 437.2,140.3 437.2,132.7 C437.2,125.1 431.9,118 424.2,118 L420.5,118.3 L421.1,101.3 C421.1,83.6 406.8,69.3 389.1,69.3 C371.4,69.3 357.1,83.6 357.1,101.3 L357.1,118.8 L347.6,118.8 C344.7,118.8 342.3,121.2 342.3,124.1 C342.3,131.9 348.6,138.3 356.5,138.3 L357.2,138.3 L357.2,157.3 C357.2,174.2 370.4,188.1 387,189.2" id="Shape" stroke="#4D4D61" stroke-width="3" mask="url(#mask-2)"></path>
            <circle id="Oval" stroke="#4D4D61" stroke-width="2" mask="url(#mask-2)" cx="369.6" cy="111.8" r="2"></circle>
            <path d="M388.5,132.2 L388.5,148.4 C388.5,158.7 380.1,167.1 369.8,167.1 C362.8,167.1 357.2,161.4 357.2,154.5" id="Shape" stroke="#4D4D61" stroke-width="2" mask="url(#mask-2)"></path>
            <path d="M386.7,131.3 L390.3,133.2" id="Shape" stroke="#4D4D61" stroke-width="2" mask="url(#mask-2)"></path>
            <polygon id="Shape" fill="#B0977A" mask="url(#mask-2)" points="373.7 93 370.1 100 384.2 108.6 385.1 102.6"></polygon>
            <path d="M373.7,93 L372.6,95.2 C376.5,96.3 379.4,99.7 379.4,103.9 C379.4,104.5 379.3,105.1 379.2,105.6 L384.2,108.7 L385.1,102.7 L373.7,93 Z" id="Shape" fill="#A3886C" mask="url(#mask-2)"></path>
            <polygon id="Shape" stroke="#4D4D61" stroke-width="2" mask="url(#mask-2)" points="373.7 93 370.1 100 384.2 108.6 385.1 102.6"></polygon>
            <path d="M442.4,83.7 C445.8,85.8 447.3,86.4 450.6,86.4 C444.9,78.4 443.5,62.7 435,52.8 C431.2,48.3 426.9,43.4 418.7,40.9 C404.6,36.7 391.3,41.4 389.6,42.3 C379.3,47.8 369,60.4 372,71.2 C372.3,72.4 371.3,73.2 372,74.1 C383.3,65.5 401.1,68.1 409.5,79.7 C416.2,88.9 414.4,103.9 407.9,112.5 C406,114.4 405.2,120.8 402.4,127.2 L409.9,122.6 C417.6,117.9 429.2,119.3 435.6,125.7 C436.7,127.6 437.4,129.6 437.7,131.6 C438.5,131.1 439.5,130.5 440.7,129.5 C448.1,123.3 449.4,113.9 449.7,111.5 C451.9,97.3 444,85.5 442.4,83.7 L442.4,83.7 Z" id="Shape" fill="#B0977A" mask="url(#mask-2)"></path>
            <path d="M450.7,86.5 C445,78.5 443.6,62.8 435.1,52.9 C431.8,49 428.1,44.7 421.7,42.1 C428.7,50.2 433,60.8 433,72.4 C433,90.6 422.5,106.3 407.2,113.9 C405.8,116.6 404.9,122 402.5,127.4 L410,122.8 C417.7,118.1 429.3,119.5 435.7,125.9 C436.8,127.8 437.5,129.8 437.8,131.8 C438.6,131.3 439.6,130.7 440.8,129.7 C448.2,123.5 449.5,114.1 449.8,111.7 C451.8,97.4 443.8,85.5 442.3,83.8 C445.9,85.9 447.4,86.5 450.7,86.5 L450.7,86.5 Z" id="Shape" fill="#A3886C" mask="url(#mask-2)"></path>
            <path d="M442.4,83.7 C445.8,85.8 447.3,86.4 450.6,86.4 C444.9,78.4 443.5,62.7 435,52.8 C431.2,48.3 426.9,43.4 418.7,40.9 C404.6,36.7 391.3,41.4 389.6,42.3 C379.3,47.8 369,60.4 372,71.2 C372.3,72.4 371.3,73.2 372,74.1 C383.3,65.5 401.1,68.1 409.5,79.7 C416.2,88.9 414.4,103.9 407.9,112.5 C406,114.4 405.2,120.8 402.4,127.2 L413.7,120.4 C421.2,115.8 431.1,118.2 435.6,125.8 C436.7,127.7 437.4,129.7 437.7,131.7 C438.5,131.2 439.5,130.6 440.7,129.6 C448.1,123.4 449.4,114 449.7,111.6 C451.9,97.3 444,85.5 442.4,83.7 L442.4,83.7 Z" id="Shape" stroke="#4D4D61" stroke-width="3" mask="url(#mask-2)"></path>
            <path d="M417,127.9 L428.9,136.4" id="Shape" stroke="#4D4D61" stroke-width="2" mask="url(#mask-2)"></path>
            <path d="M427.4,125.9 L418.9,137.8" id="Shape" stroke="#4D4D61" stroke-width="2" mask="url(#mask-2)"></path>
            <path d="M359.4,134.5 L360.5,135.5 C360.5,135.5 362.5,133.4 365.1,134.5 C364.4,133.1 358.6,132.4 359.4,134.5 Z" id="Shape" stroke="#4D4D61" stroke-width="2" mask="url(#mask-2)"></path>
            <path d="M387,189.2 C429.6,215.8 458.9,258.7 468.7,307.3 L482.5,307.3 C474.7,257.7 446.6,213.5 404.7,185.3" id="Shape" stroke="#4D4D61" stroke-width="3" mask="url(#mask-2)"></path>
            <polygon id="Shape" fill="#475C80" mask="url(#mask-2)" transform="translate(377.531020, 372.298830) rotate(238.151907) translate(-377.531020, -372.298830) " points="319.477609 360.248122 435.584431 360.248122 435.584431 384.349538 319.477609 384.349538"></polygon>
            <path d="M348.8,349.6 L392.9,419.9 C395.7,418.1 404.2,422 402.4,419.2 L362.1,358.9 C360.3,356.1 352.6,348.8 349.7,350.6 L348.8,349.6 Z" id="Shape" fill="#6987AF" opacity="0.57" mask="url(#mask-2)"></path>
            <path d="M346.9,345.8 C346.9,345.8 365.8,339.9 372.3,341.1 C365.7,328.4 363.3,325.9 363.3,325.9 L338,334.1 L346.9,345.8 Z" id="Shape" fill="#4D4D61" mask="url(#mask-2)"></path>
            <polygon id="Shape" stroke="#4D4D61" stroke-width="3.0001763" mask="url(#mask-2)" transform="translate(377.531020, 372.298830) rotate(238.151907) translate(-377.531020, -372.298830) " points="319.477609 360.248122 435.584431 360.248122 435.584431 384.349538 319.477609 384.349538"></polygon>
            <path d="M300.1,337.2 L223,400.8 L238.3,419.4 L308.7,361.3 C331.3,342.6 359.8,332.4 389.1,332.4 L476.4,332.4 C483,332.4 488.4,327 488.4,320.4 L488.4,308.4 L380.4,308.4 C351.1,308.3 322.7,318.5 300.1,337.2 L300.1,337.2 Z" id="Shape" fill="#475C80" mask="url(#mask-2)"></path>
            <path d="M227.8,396.8 L234.6,406.3 L315.1,334.2 L311,329.1 C307.2,331.6 303.6,334.3 300.1,337.2 L227.8,396.8 Z" id="Shape" fill="#6987AF" opacity="0.57" mask="url(#mask-2)"></path>
            <path d="M363,314.5 L453.1,315.7 C457.8,315.7 473.6,312.9 473.6,308.2 L380.6,308.2 C371,308.2 340.8,312.9 329.7,318.9 C326.8,320.5 349.5,314.5 363,314.5 L363,314.5 Z" id="Shape" fill="#6987AF" opacity="0.57" mask="url(#mask-2)"></path>
            <path d="M300.1,337.2 L223,400.8 L238.3,419.4 L308.7,361.3 C331.3,342.6 359.8,332.4 389.1,332.4 L476.4,332.4 C483,332.4 488.4,327 488.4,320.4 L488.4,308.4 L380.4,308.4 C351.1,308.3 322.7,318.5 300.1,337.2 L300.1,337.2 Z" id="Shape" stroke="#4D4D61" stroke-width="3" mask="url(#mask-2)"></path>
            <path d="M488.5,307.3 C481.6,262.3 458.3,221.2 423.6,192.1 L401.7,207.3 C432.8,232.7 454.3,268.1 462.5,307.3 L488.5,307.3 Z" id="Shape" fill="#E5E5E5" mask="url(#mask-2)"></path>
            <path d="M462.5,307.3 L473.5,307.3 C465,265.9 442.6,228.4 410.3,201.3 L401.7,207.3 C432.8,232.6 454.3,268.1 462.5,307.3 L462.5,307.3 Z" id="Shape" fill="#FFFFFF" mask="url(#mask-2)"></path>
            <path d="M488.5,307.3 C481.6,262.3 458.3,221.2 423.6,192.1 L401.7,207.3 C432.8,232.7 454.3,268.1 462.5,307.3 L488.5,307.3 Z" id="Shape" stroke="#4D4D61" stroke-width="3" mask="url(#mask-2)"></path>
            <path d="M328.7,237.9 C328.7,237.9 320.4,244.8 321.1,230.6 C321.4,224.1 329.9,224.3 329.9,224.3 L330.8,230.4 L328.7,237.9 Z" id="Shape" fill="#B0977A" mask="url(#mask-2)"></path>
            <path d="M328.7,237.9 C328.7,237.9 320.4,244.8 321.1,230.6 C321.4,224.1 329.9,224.3 329.9,224.3 L330.8,230.4 L328.7,237.9 Z" id="Shape" stroke="#4D4D61" stroke-width="3" mask="url(#mask-2)"></path>
            <path d="M353.2,222.5 C349.2,228.1 343,231.7 336.1,232.4 C330.9,232.9 331,220.9 322.9,235.1 C319.7,236.8 315.9,233.4 314.2,231.4 C313.7,230.8 313.7,229.9 314.3,229.4 C315.8,228.1 318.6,225 319.9,219.6 C320.8,214.4 322.5,210.6 326.6,212.8 C330.2,214.7 352.6,212 353.2,222.5 L353.2,222.5 Z" id="Shape" fill="#EDD6BC" mask="url(#mask-2)"></path>
            <path d="M353.2,222.5 C349.2,228.1 343,231.7 336.1,232.4 C330.9,232.9 331,220.9 322.9,235.1 C319.7,236.8 316,233.4 314.2,231.5 C313.6,230.9 313.7,229.9 314.3,229.4 C315.9,228 318.6,225 319.8,219.6 C320.7,214.4 322.4,210.6 326.5,212.8 C330.2,214.7 352.6,212 353.2,222.5 L353.2,222.5 Z" id="Shape" stroke="#4D4D61" stroke-width="3" mask="url(#mask-2)"></path>
            <path d="M356.1,234.3 C356.1,234.3 353.2,225.9 345.4,221.9 C344.6,225 340.6,228.1 336.7,229.2 L338.9,233 C340.6,236.1 339.2,240 335.9,241.1 C333,242.1 329.9,240.7 328.7,237.9 L323.8,223 C323.8,223 333.4,219.5 336.3,216.5 C338.3,214.5 343,207 343,207 C343,207 351.7,209.1 357.6,215 C362.5,219.9 366.9,228.2 366.9,228.2 L356.1,234.3 Z" id="Shape" fill="#EDD6BC" mask="url(#mask-2)"></path>
            <path d="M334.5,240.7 L329.6,225.8 C329.6,225.8 339.2,222.3 342.1,219.3 C344.1,217.3 348.8,209.8 348.8,209.8 C348.8,209.8 350.1,210.1 352.1,210.9 C347.4,208.1 342.9,207 342.9,207 C342.9,207 338.2,214.5 336.2,216.5 C333.2,219.4 323.7,223 323.7,223 L328.6,237.9 C329.6,240.4 332.2,241.8 334.8,241.3 C334.7,241.1 334.6,240.9 334.5,240.7 Z" id="Shape" fill="#F7E3CB" mask="url(#mask-2)"></path>
            <path d="M351.2,224.7 C351.1,225.1 350.9,225.5 350.7,225.9 C354.5,229.9 356.1,234.3 356.1,234.3 L359.5,232.4 C357.8,229.8 355.1,226.7 351.2,224.7 Z" id="Shape" fill="#F7E3CB" mask="url(#mask-2)"></path>
            <path d="M356.1,234.3 C356.1,234.3 353.2,225.9 345.4,221.9 C344.6,225 340.6,228.1 336.7,229.2 L338.9,233 C340.6,236.1 339.2,240 335.9,241.1 C333,242.1 329.9,240.7 328.7,237.9 L323.8,223 C323.8,223 333.4,219.5 336.3,216.5 C338.3,214.5 343,207 343,207 C343,207 351.7,209.1 357.6,215 C362.5,219.9 366.9,228.2 366.9,228.2 L356.1,234.3 Z" id="Shape" stroke="#4D4D61" stroke-width="3" mask="url(#mask-2)"></path>
            <path d="M328.7,235.1 L331.7,234.2 C331.7,234.2 333.2,235.7 333.2,237.1 C333.2,238.5 329.7,239.6 329.7,239.6 C329.7,239.6 327.4,236.3 328.7,235.1 Z" id="Shape" stroke="#4D4D61" stroke-width="2" mask="url(#mask-2)"></path>
            <path d="M317,226.8 L319.4,228.8 C319.4,228.8 319,230.9 317.8,231.6 C316.7,232.3 313.8,230.1 313.8,230.1 C313.8,230.1 315.3,226.4 317,226.8 L317,226.8 Z" id="Shape" stroke="#4D4D61" stroke-width="2" mask="url(#mask-2)"></path>
            <path d="M368.6,226 L394.1,274.9 C397.8,282 403.9,287.5 411.4,290.5 C428.5,297.3 447.9,288.9 454.7,271.8 C461.5,254.7 453.1,235.3 436,228.5 L425.2,224.2 C420.6,222.4 418.4,217.1 420.2,212.6 C422,208.1 427.2,205.9 431.8,207.7 L442.6,212 C468.9,222.4 481.7,252.2 471.3,278.4 C460.9,304.7 431.1,317.5 404.9,307.1 C393.5,302.6 384.1,294.1 378.4,283.2 L353.3,235.1 L368.6,226 Z" id="Shape" fill="#E5E5E5" mask="url(#mask-2)"></path>
            <polygon id="Shape" fill="#E5E5E5" mask="url(#mask-2)" points="375.5 239.2 368.6 226 353.2 235.1 360 248.1"></polygon>
            <path d="M353.2,235.1 L378.3,283.2 C379.2,284.9 380.2,286.6 381.3,288.2 C380.7,284.7 384.3,292.2 384.3,292.2 L358.7,231.7 L353.2,235.1 Z" id="Shape" fill="#FFFFFF" mask="url(#mask-2)"></path>
            <polygon id="Shape" stroke="#4D4D61" stroke-width="3" mask="url(#mask-2)" points="375.5 239.2 368.6 226 353.2 235.1 360 248.1"></polygon>
            <path d="M421.5,218.3 C423.3,213.8 428.5,211.6 433.1,213.4 L443.9,217.7 C459.3,223.8 470.1,236.6 474.3,251.5 C471.5,234.3 460,218.9 442.7,212 L431.9,207.7 C427.3,205.9 422.2,208.1 420.3,212.6 C419.2,215.3 419.5,218.3 421,220.6 C421,219.8 421.2,219.1 421.5,218.3 Z" id="Shape" fill="#FFFFFF" mask="url(#mask-2)"></path>
            <path d="M369.9,228.5 L390.8,276.2 C396.1,285.8 402.6,293.3 410,296.2 C427.1,303 449,294.6 455.8,277.5 C458.7,270.1 458.8,262.3 456.6,255.3 C457.3,260.7 456.7,266.4 454.5,271.8 C447.7,288.9 428.3,297.3 411.2,290.5 C403.8,287.5 397.6,282 393.9,274.9 L368.6,226" id="Shape" fill="#FFFFFF" mask="url(#mask-2)"></path>
            <path d="M368.6,226 L394.1,274.9 C397.8,282 403.9,287.5 411.4,290.5 C428.5,297.3 447.9,288.9 454.7,271.8 C461.5,254.7 453.1,235.3 436,228.5 L425.2,224.2 C420.6,222.4 418.4,217.1 420.2,212.6 C422,208.1 427.2,205.9 431.8,207.7 L442.6,212 C468.9,222.4 481.7,252.2 471.3,278.4 C460.9,304.7 431.1,317.5 404.9,307.1 C393.5,302.6 384.1,294.1 378.4,283.2 L353.3,235.1 L368.6,226 Z" id="Shape" stroke="#4D4D61" stroke-width="3" mask="url(#mask-2)"></path>
            <polygon id="Shape" fill="#E5E5E5" mask="url(#mask-2)" points="424 189.3 407.9 217.2 389.7 205.2 416.6 186.3"></polygon>
            <path d="M410.5,190.6 L389.7,205.2 L397.9,210.6 C398,210.5 398.1,210.5 398.2,210.4 C407.3,205.4 412.5,196.9 410.5,190.6 Z" id="Shape" fill="#FFFFFF" mask="url(#mask-2)"></path>
            <polygon id="Shape" stroke="#4D4D61" stroke-width="3" mask="url(#mask-2)" points="424 189.3 407.9 217.2 389.7 205.2 416.6 186.3"></polygon>
            <circle id="Oval" fill="#56566D" mask="url(#mask-2)" cx="401.8" cy="462.8" r="19.6"></circle>
            <path d="M390.5,472.6 C390.5,461.8 399.3,453 410.1,453 C413.7,453 417.1,454 420,455.7 C417.1,448.4 410,443.2 401.7,443.2 C390.9,443.2 382.1,452 382.1,462.8 C382.1,470 386,476.3 391.8,479.7 C391,477.5 390.5,475.1 390.5,472.6 L390.5,472.6 Z" id="Shape" fill="#66667C" opacity="0.44" mask="url(#mask-2)"></path>
            <circle id="Oval" stroke="#4D4D61" stroke-width="3" mask="url(#mask-2)" cx="401.8" cy="462.8" r="19.6"></circle>
            <circle id="Oval" stroke="#4D4D61" stroke-width="3" mask="url(#mask-2)" cx="401.8" cy="462.8" r="9.7"></circle>
            <circle id="Oval" fill="#4D4D61" mask="url(#mask-2)" cx="401.8" cy="462.8" r="9.7"></circle>
            <path d="M424.6,453.1 C421.3,453.1 418.3,451.7 416,449.3 C412.4,445.5 407.4,443.2 401.8,443.2 C396.3,443.2 391.4,445.4 387.8,449.1 C385.3,451.6 382.1,453.1 378.6,453.1 L378.5,453.1 C382.3,444 391.3,437.6 401.8,437.6 C412.3,437.6 421.3,444 425.1,453.1 L424.6,453.1 Z" id="Shape" fill="#CA4361" mask="url(#mask-2)"></path>
            <path d="M395.7,438.3 C387.9,440.2 381.6,445.8 378.5,453.1 L378.6,453.1 C382,453.1 385.2,451.8 387.5,449.4 C389.5,447.3 393.6,445.6 396.9,444.6 C399.8,443.7 400,439.5 397.1,438.5 C396.8,438.3 396.2,438.2 395.7,438.3 L395.7,438.3 Z" id="Shape" fill="#D35375" mask="url(#mask-2)"></path>
            <path d="M424.6,453.1 C421.3,453.1 418.3,451.7 416,449.3 C412.4,445.5 407.4,443.2 401.8,443.2 C396.3,443.2 391.4,445.4 387.8,449.1 C385.3,451.6 382.1,453.1 378.6,453.1 L378.5,453.1 C382.3,444 391.3,437.6 401.8,437.6 C412.3,437.6 421.3,444 425.1,453.1 L424.6,453.1 Z" id="Shape" stroke="#4D4D61" stroke-width="3" mask="url(#mask-2)"></path>
            <circle id="Oval" fill="#56566D" mask="url(#mask-2)" cx="506.9" cy="462.8" r="19.6"></circle>
            <path d="M496.3,472.6 C496.3,461.8 505.1,453 515.9,453 C519.5,453 522.9,454 525.8,455.7 C522.9,448.4 515.8,443.2 507.5,443.2 C496.7,443.2 487.9,452 487.9,462.8 C487.9,470 491.8,476.3 497.6,479.7 C496.8,477.5 496.3,475.1 496.3,472.6 L496.3,472.6 Z" id="Shape" fill="#66667C" opacity="0.44" mask="url(#mask-2)"></path>
            <circle id="Oval" stroke="#4D4D61" stroke-width="3" mask="url(#mask-2)" cx="506.9" cy="462.8" r="19.6"></circle>
            <polygon id="Shape" stroke="#4D4D61" stroke-width="3" mask="url(#mask-2)" points="139.8 301.2 153.4 301.2 153.4 487.9 139.8 487.9"></polygon>
            <polygon id="Shape" fill="#4D4D61" mask="url(#mask-2)" points="139.8 301.2 153.4 301.2 153.4 487.9 139.8 487.9"></polygon>
            <circle id="Oval" stroke="#4D4D61" stroke-width="3" mask="url(#mask-2)" cx="506.9" cy="462.8" r="9.7"></circle>
            <path d="M529.7,453.1 C526.4,453.1 523.4,451.7 521.1,449.3 C517.5,445.5 512.5,443.2 506.9,443.2 C501.4,443.2 496.5,445.4 492.9,449.1 C490.4,451.6 487.2,453.1 483.7,453.1 L483.6,453.1 C487.4,444 496.4,437.6 506.9,437.6 C517.4,437.6 526.4,444 530.2,453.1 L529.7,453.1 Z" id="Shape" fill="#CA4361" mask="url(#mask-2)"></path>
            <circle id="Oval" fill="#4D4D61" mask="url(#mask-2)" cx="506.9" cy="462.8" r="9.7"></circle>
            <path d="M529.7,453.1 C526.4,453.1 523.4,451.7 521.1,449.3 C517.5,445.5 512.5,443.2 506.9,443.2 C501.4,443.2 496.5,445.4 492.9,449.1 C490.4,451.6 487.2,453.1 483.7,453.1 L483.6,453.1 C487.4,444 496.4,437.6 506.9,437.6 C517.4,437.6 526.4,444 530.2,453.1 L529.7,453.1 Z" id="Shape" stroke="#4D4D61" stroke-width="3" mask="url(#mask-2)"></path>
            <path d="M369.8,282.6 L76.2,282.6 C73.8,282.6 71.9,280.7 71.9,278.3 L71.9,270.2 C71.9,267.8 73.8,265.9 76.2,265.9 L369.8,265.9 C372.2,265.9 374.1,267.8 374.1,270.2 L374.1,278.3 C374.1,280.7 372.2,282.6 369.8,282.6 Z" id="Shape" fill="#B98C78" mask="url(#mask-2)"></path>
            <path d="M183.9,275.1 C141.2,275.1 102.8,278 76.5,282.6 L291.4,282.6 C265,278 226.6,275.1 183.9,275.1 Z" id="Shape" fill="#C9A08F" mask="url(#mask-2)"></path>
            <path d="M369.8,282.6 L76.2,282.6 C73.8,282.6 71.9,280.7 71.9,278.3 L71.9,270.2 C71.9,267.8 73.8,265.9 76.2,265.9 L369.8,265.9 C372.2,265.9 374.1,267.8 374.1,270.2 L374.1,278.3 C374.1,280.7 372.2,282.6 369.8,282.6 Z" id="Shape" stroke="#4D4D61" stroke-width="3" mask="url(#mask-2)"></path>
            <path d="M338.1,304 L107.8,304 C101.9,304 97.1,299.2 97.1,293.3 C97.1,287.4 101.9,282.6 107.8,282.6 L338.1,282.6 C344,282.6 348.8,287.4 348.8,293.3 C348.8,299.2 344,304 338.1,304 L338.1,304 Z" id="Shape" stroke="#4D4D61" stroke-width="3" mask="url(#mask-2)"></path>
            <path d="M338.1,304 L107.8,304 C101.9,304 97.1,299.2 97.1,293.3 C97.1,287.4 101.9,282.6 107.8,282.6 L338.1,282.6 C344,282.6 348.8,287.4 348.8,293.3 C348.8,299.2 344,304 338.1,304 L338.1,304 Z" id="Shape" fill="#4D4D61" mask="url(#mask-2)"></path>
            <path d="M193,299 C160.1,299 131.9,301.1 119.5,304 L266.5,304 C254.1,301 225.9,299 193,299 Z" id="Shape" fill="#575770" mask="url(#mask-2)"></path>
            <circle id="Oval" fill="#83ABBA" mask="url(#mask-2)" cx="197.1" cy="243.1" r="6.5"></circle>
            <circle id="Oval" stroke="#4D4D61" stroke-width="3" mask="url(#mask-2)" cx="197.1" cy="243.1" r="6.5"></circle>
            <path d="M195.2,240.5 L195.7,240.4 L171.2,104.3 L170.7,104.4 C166,105.3 162.8,109.8 163.7,114.5 L185.1,233.5 C185.9,238.2 190.4,241.3 195.2,240.5 Z" id="Shape" fill="#92B4C3" mask="url(#mask-2)"></path>
            <path d="M184.7,231.4 C184.7,215.9 183.3,199.1 180.2,181.8 C177,163.7 172.3,146.7 166.7,131.7 L184.7,231.4 Z" id="Shape" fill="#ACD3E5" mask="url(#mask-2)"></path>
            <path d="M195.2,240.5 L195.7,240.4 L171.2,104.3 L170.7,104.4 C166,105.3 162.8,109.8 163.7,114.5 L185.1,233.5 C185.9,238.2 190.4,241.3 195.2,240.5 Z" id="Shape" stroke="#4D4D61" stroke-width="3" mask="url(#mask-2)"></path>
            <polygon id="Shape" stroke="#4D4D61" stroke-width="3" mask="url(#mask-2)" points="299.6 302 313.2 302 313.2 488.7 299.6 488.7"></polygon>
            <polygon id="Shape" fill="#4D4D61" mask="url(#mask-2)" points="299.6 302 313.2 302 313.2 488.7 299.6 488.7"></polygon>
            <path d="M209.7,258.9 L334.7,258.9 C340.8,258.9 345.8,253.9 345.8,247.8 L345.8,243.1 L198.6,243.1 L198.6,247.8 C198.6,253.9 203.6,258.9 209.7,258.9 Z" id="Shape" fill="#92B4C3" mask="url(#mask-2)"></path>
            <path d="M334.7,255.4 L209.7,255.4 C203.6,255.4 198.6,250.4 198.6,244.3 L198.6,247.8 C198.6,253.9 203.6,258.9 209.7,258.9 L334.7,258.9 C340.8,258.9 345.8,253.9 345.8,247.8 L345.8,244.3 C345.8,250.4 340.8,255.4 334.7,255.4 L334.7,255.4 Z" id="Shape" fill="#83ABBA" mask="url(#mask-2)"></path>
            <path d="M209.7,258.9 L334.7,258.9 C340.8,258.9 345.8,253.9 345.8,247.8 L345.8,243.1 L198.6,243.1 L198.6,247.8 C198.6,253.9 203.6,258.9 209.7,258.9 Z" id="Shape" stroke="#4D4D61" stroke-width="3" mask="url(#mask-2)"></path>
            <polygon id="Shape" stroke="#4D4D61" stroke-width="3" mask="url(#mask-2)" transform="translate(272.196700, 262.319200) scale(-1, -1) translate(-272.196700, -262.319200) " points="217.0967 258.8192 327.2967 258.8192 327.2967 265.8192 217.0967 265.8192"></polygon>
            <polygon id="Shape" fill="#4D4D61" mask="url(#mask-2)" transform="translate(272.196700, 262.319200) scale(-1, -1) translate(-272.196700, -262.319200) " points="217.0967 258.8192 327.2967 258.8192 327.2967 265.8192 217.0967 265.8192"></polygon>
            <polygon id="Shape" stroke="#4D4D61" stroke-width="2" mask="url(#mask-2)" transform="translate(277.348300, 249.211300) scale(-1, -1) translate(-277.348300, -249.211300) " points="272.3983 247.5613 282.2983 247.5613 282.2983 250.8613 272.3983 250.8613"></polygon>
            <polygon id="Shape" stroke="#4D4D61" stroke-width="2" mask="url(#mask-2)" transform="translate(263.239200, 249.211300) scale(-1, -1) translate(-263.239200, -249.211300) " points="258.2892 247.5613 268.1892 247.5613 268.1892 250.8613 258.2892 250.8613"></polygon>
            <circle id="Oval" stroke="#4D4D61" stroke-width="2" mask="url(#mask-2)" cx="211.5" cy="249.2" r="1.8"></circle>
            <path d="M564,191.8 C565.5,180.3 557.3,169.8 545.7,168.7 C534.6,167.6 524.8,175.8 523.3,186.9 L509.6,288.8 C509,293.4 512.2,297.6 516.8,298.2 L528.9,299.8 C533.5,300.4 537.7,297.2 538.3,292.6 L540.3,277.6 C544,250.1 550.8,222.9 562.4,197.7 C563.1,195.9 563.7,193.9 564,191.8 L564,191.8 Z" id="Shape" fill="#CA4361" mask="url(#mask-2)"></path>
            <path d="M536.2,277.6 L534.2,292.6 C533.7,296.1 531.1,298.9 527.8,299.6 L528.9,299.7 C533.5,300.3 537.7,297.1 538.3,292.5 L540.3,277.5 C544,250 550.8,222.8 562.4,197.6 C563.2,195.8 563.8,193.8 564.1,191.8 C565.6,180.3 557.4,169.8 545.8,168.7 C544.5,168.6 543.1,168.6 541.9,168.7 C553.5,169.9 561.7,180.4 560.2,191.8 C559.9,193.9 559.3,195.8 558.5,197.6" id="Shape" fill="#D35375" mask="url(#mask-2)"></path>
            <path d="M523.3,186.9 L512.7,265.9 C521.9,239.6 530.8,211.3 530.8,189.3 C530.8,174.4 548.9,169.4 553.9,174.4 C550.6,168.3 540.1,167.7 534.4,171 C528.2,174.5 523.9,182 523.3,186.9 Z" id="Shape" fill="#D35375" mask="url(#mask-2)"></path>
            <path d="M564,191.8 C565.5,180.3 557.3,169.8 545.7,168.7 C534.6,167.6 524.8,175.8 523.3,186.9 L509.6,288.8 C509,293.4 512.2,297.6 516.8,298.2 L528.9,299.8 C533.5,300.4 537.7,297.2 538.3,292.6 L540.3,277.6 C544,250.1 550.8,222.9 562.4,197.7 C563.1,195.9 563.7,193.9 564,191.8 L564,191.8 Z" id="Shape" stroke="#4D4D61" stroke-width="3" mask="url(#mask-2)"></path>
            <path d="M221,450.5 L152.4,406.3 C151.1,405.5 150.8,403.8 151.6,402.6 L151.7,402.4 C152.5,401.1 154.2,400.8 155.4,401.6 L224,445.8 C225.3,446.6 225.6,448.3 224.8,449.5 L224.7,449.7 C224,450.9 222.3,451.3 221,450.5 Z" id="Shape" fill="#595D5C" mask="url(#mask-2)"></path>
            <path d="M221,450.5 L152.4,406.3 C151.1,405.5 150.8,403.8 151.6,402.6 L151.7,402.4 C152.5,401.1 154.2,400.8 155.4,401.6 L224,445.8 C225.3,446.6 225.6,448.3 224.8,449.5 L224.7,449.7 C224,450.9 222.3,451.3 221,450.5 Z" id="Shape" stroke="#4D4D61" stroke-width="3" mask="url(#mask-2)"></path>
            <path d="M228.3,428 L228,427.8 C224.6,428.4 220.2,427.4 216.2,424.8 C213.2,422.9 210.9,420.3 209.6,417.8 C208.4,415.5 206.8,413.4 204.7,412 L178.2,394.1 C175.1,392 171,391.6 167.1,392.9 L158.5,395.9 C155.6,396.9 154.7,401 157,402.5 L223.4,445.3 L229.3,436.1 C231.1,433.2 230.7,429.6 228.3,428 L228.3,428 Z" id="Shape" fill="#9B8462" mask="url(#mask-2)"></path>
            <path d="M167.1,392.9 L165.7,393.4 C165.8,396.7 167.5,399.9 170.5,401.9 L212,428.6 C215.9,431.1 220.9,430.7 224.3,427.9 C221.7,427.6 218.9,426.6 216.2,424.9 C213.2,423 210.9,420.4 209.6,417.9 C208.4,415.6 206.8,413.5 204.7,412.1 L178.2,394.2 C175.1,391.9 171,391.5 167.1,392.9 L167.1,392.9 Z" id="Shape" fill="#E1C885" opacity="0.74" mask="url(#mask-2)"></path>
            <path d="M228.3,428 L228,427.8 C224.6,428.4 220.2,427.4 216.2,424.8 C213.2,422.9 210.9,420.3 209.6,417.8 C208.4,415.5 206.8,413.4 204.7,412 L178.2,394.1 C175.1,392 171,391.6 167.1,392.9 L158.5,395.9 C155.6,396.9 154.7,401 157,402.5 L223.4,445.3 L229.3,436.1 C231.1,433.2 230.7,429.6 228.3,428 L228.3,428 Z" id="Shape" stroke="#4D4D61" stroke-width="3" mask="url(#mask-2)"></path>
            <polygon id="Shape" stroke="#4D4D61" stroke-width="3" mask="url(#mask-2)" points="197.9 417.8 208.4 415.8 205.7 412.8"></polygon>
            <polygon id="Shape" fill="#92B4C3" mask="url(#mask-2)" points="226.7 389.9 218.4 398.1 238.7 423.6 248.7 415.3"></polygon>
            <path d="M226.1,390.5 L218.4,398.1 L229.4,411.9 C231.2,409.3 232.3,406.2 232.3,402.9 C232.3,397.9 229.9,393.4 226.1,390.5 Z" id="Shape" fill="#9EC0CC" mask="url(#mask-2)"></path>
            <polygon id="Shape" stroke="#4D4D61" stroke-width="3" mask="url(#mask-2)" points="226.7 389.9 218.4 398.1 238.7 423.6 248.7 415.3"></polygon>
            <polygon id="Shape" fill="#92B4C3" mask="url(#mask-2)" points="390.5 422.5 396.8 432.4 426 417.8 420 406.3"></polygon>
            <polygon id="Shape" fill="#92B4C3" mask="url(#mask-2)" points="390.5 422.5 396.8 432.4 426 417.8 420 406.3"></polygon>
            <path d="M401.8,423.7 C401.8,421.5 400.6,419.6 398.6,418 L390.5,422.5 L396,431.1 C399.5,429.4 401.8,426.7 401.8,423.7 L401.8,423.7 Z" id="Shape" fill="#9EC0CC" mask="url(#mask-2)"></path>
            <polygon id="Shape" stroke="#4D4D61" stroke-width="3" mask="url(#mask-2)" points="390.5 422.5 396.8 432.4 426 417.8 420 406.3"></polygon>
            <ellipse id="Oval" stroke="#4D4D61" stroke-width="2" mask="url(#mask-2)" cx="309" cy="182.9" rx="0.8" ry="1.3"></ellipse>
            <path d="M226.7,254.1 L221.7,254.1 C220.4,254.1 219.3,253 219.3,251.7 L219.3,248.7 C219.3,247.4 220.4,246.3 221.7,246.3 L226.7,246.3 C228,246.3 229.1,247.4 229.1,248.7 L229.1,251.7 C229.1,253 228,254.1 226.7,254.1 Z" id="Shape" fill="#4D4D61" mask="url(#mask-2)"></path>
        </g>
    </g>
</svg>